<svg xmlns="http://www.w3.org/2000/svg" viewBox="0 0 36.688896 34.572227" width="36.688896mm" height="34.572227mm" id="svg1"><g transform="translate(-82.200956,-112.01317)"><g transform="translate(5.8026015,-1.4066911)"><path fill="#a6dff4" d="m 90.98,147.7 .12,.06 -.12,-.06 m -2.59,.12 v .18 h 2.12 z"/><path fill="#a9a5e6" d="m 90.69,147.64 .18,.18 z"/><path fill="#6899e8" d="m 90.16,147.64 v .18 h .53 z"/><path fill="#02b5ed" d="m 88.86,147.7 .12,.06 -.12,-.06 m 1.06,0 .12,.06 z"/><path fill="#6899e8" d="m 88.22,147.64 v .18 h .53 z"/><path fill="#a9a5e6" d="m 87.69,147.64 v .18 h .53 z"/><path fill="#a6dff4" d="m 92.21,147.52 .12,.06 -.12,-.06 m -5.06,.12 v .18 h .53 z"/><path fill="#a9a5e6" d="m 91.92,147.46 .18,.18 z"/><path fill="#6899e8" d="m 91.69,147.52 .12,.06 z"/><path fill="#02b5ed" d="m 86.75,147.52 .12,.06 z"/><path fill="#6899e8" d="m 86.45,147.46 .18,.18 z"/><path fill="#66daef" d="m 86.28,147.46 .18,.18 z"/><path fill="#a6dff4" d="m 93.33,147.29 .18,.18 -.18,-.18 m -7.23,.18 .18,.18 z"/><path fill="#a9a5e6" d="m 93.1,147.35 .12,.06 z"/><path fill="#6899e8" d="m 92.45,147.29 v .18 h .53 z"/><path fill="#7e65d5" d="m 92.27,147.29 .18,.18 z"/><path fill="#6899e8" d="m 85.57,147.29 v .18 h .71 z"/><path fill="#a6dff4" d="m 94.15,147.17 .12,.06 z"/><path fill="#a9a5e6" d="m 93.51,147.11 v .18 h .53 z"/><path fill="#6899e8" d="m 93.33,147.11 .18,.18 z"/><path fill="#412edc" d="m 92.57,147.17 .12,.06 z"/><path fill="#02b5ed" d="m 85.39,147.11 .18,.18 z"/><path fill="#6899e8" d="m 85.22,147.11 .18,.18 z"/><path fill="#a6dff4" d="m 94.57,146.93 .18,.18 z"/><path fill="#a9a5e6" d="m 94.39,146.93 .18,.18 z"/><path fill="#6899e8" d="m 94.21,146.93 .18,.18 z"/><path fill="#380db4" d="m 93.33,146.93 v .18 h .71 z"/><path fill="#412edc" d="m 93.16,146.93 .18,.18 z"/><path fill="#a6dff4" d="m 84.16,146.93 v .18 l 1.41,.35 v -.18 z"/><path fill="#a9a5e6" d="m 95.1,146.76 .18,.18 z"/><path fill="#6899e8" d="m 94.92,146.76 .18,.18 z"/><path fill="#115ce7" d="m 84.34,146.76 v .18 h .53 l -.53,-.18 m 10.35,.06 .12,.06 z"/><path fill="#a6dff4" d="m 95.8,146.58 .18,.18 -.18,-.18 m -11.99,.18 .18,.18 z"/><path fill="#a9a5e6" d="m 95.62,146.58 .18,.18 z"/><path fill="#6899e8" d="m 95.45,146.58 .18,.18 z"/><path fill="#7e65d5" d="m 95.21,146.64 .12,.06 z"/><path fill="#6899e8" d="m 83.63,146.58 .18,.18 z"/><path fill="#66daef" d="m 83.45,146.58 .18,.18 z"/><path fill="#a6dff4" d="m 96.33,146.4 .18,.18 z"/><path fill="#a9a5e6" d="m 96.1,146.46 .12,.06 z"/><path fill="#7e65d5" d="m 95.8,146.4 .18,.18 z"/><path fill="#380db4" d="m 95.1,146.4 v .18 h .53 z"/><path fill="#a6dff4" d="m 96.68,146.23 .18,.18 z"/><path fill="#a9a5e6" d="m 96.51,146.23 .18,.18 z"/><path fill="#7e65d5" d="m 96.33,146.23 .18,.18 z"/><path fill="#115ce7" d="m 83.28,146.23 .18,.18 z"/><path fill="#a6dff4" d="m 82.75,146.23 v .18 l .71,.35 v -.18 z"/><path fill="#a9a5e6" d="m 97.04,146.05 .18,.18 z"/><path fill="#380db4" d="m 96.33,146.05 -.71,.18 v .18 l .88,-.18 z"/><path fill="#a6dff4" d="m 97.57,145.88 .18,.18 -.18,-.18 m -15.17,.18 .18,.18 z"/><path fill="#a9a5e6" d="m 97.39,145.88 .18,.18 z"/><path fill="#7e65d5" d="m 96.86,146.23 .53,-.18 z"/><path fill="#380db4" d="m 96.68,145.88 .18,.18 z"/><path fill="#66daef" d="m 82.22,145.88 .18,.18 z"/><path fill="#a6dff4" d="m 97.92,145.7 .18,.18 z"/><path fill="#a9a5e6" d="m 97.74,145.7 .18,.18 z"/><path fill="#7e65d5" d="m 97.57,145.7 .18,.18 z"/><path fill="#a6dff4" d="m 98.27,145.52 .18,.18 -.18,-.18 m -16.4,.18 .35,.35 z"/><path fill="#a9a5e6" d="m 98.09,145.52 .18,.18 z"/><path fill="#380db4" d="m 97.04,145.7 v .18 l .88,-.18 z"/><path fill="#66daef" d="m 81.69,145.52 .18,.18 z"/><path fill="#a6dff4" d="m 81.51,145.52 .18,.18 z"/><path fill="#7e65d5" d="m 98.62,145.17 .18,.18 -.18,-.18 m -.18,.18 .18,.18 z"/><path fill="#380db4" d="m 98.27,145.17 .18,.18 z"/><path fill="#66daef" d="m 81.16,145.17 .35,.35 z"/><path fill="#a6dff4" d="m 99.33,144.99 .18,.18 z"/><path fill="#a9a5e6" d="m 99.15,144.99 -.53,.35 v .18 l .71,-.35 z"/><path fill="#7e65d5" d="m 98.98,144.99 .18,.18 z"/><path fill="#66daef" d="m 80.98,144.99 .18,.18 z"/><path fill="#a9a5e6" d="m 99.51,144.82 .18,.18 z"/><path fill="#7e65d5" d="m 99.68,144.64 .18,.18 z"/><path fill="#a6dff4" d="m 100.21,144.46 .18,.18 z"/><path fill="#a9a5e6" d="m 100.03,144.46 -.18,.35 z"/><path fill="#7632dd" d="m 99.86,144.46 .18,.18 z"/><path fill="#a9a5e6" d="m 100.39,144.29 .18,.18 z"/><path fill="#7e65d5" d="m 100.56,144.11 .18,.18 -.18,-.18 m -.35,.18 .18,.18 z"/><path fill="#7632dd" d="m 100.74,143.94 .18,.18 z"/><path fill="#380db4" d="m 100.39,143.94 -1.94,1.06 v .18 c .6,-.08 2.07,-.49 1.94,-1.23 z"/><path fill="#7e65d5" d="m 100.92,143.76 .18,.18 z"/><path fill="#a6dff4" d="m 79.57,143.76 1.59,1.59 z"/><path fill="#a9a5e6" d="m 101.27,143.58 -.35,.53 z"/><path fill="#412edc" d="m 101.09,143.58 .18,.18 z"/><path fill="#a6dff4" d="m 101.62,143.41 -.18,.35 z"/><path fill="#380db4" d="m 101.45,143.23 .18,.18 -.18,-.18 m -.88,.53 v .18 l .88,-.35 z"/><path fill="#66daef" d="m 79.22,143.23 .71,.71 z"/><path fill="#380db4" d="m 101.62,143.05 .18,.18 z"/><path fill="#412edc" d="m 101.45,143.05 .18,.18 z"/><path fill="#02b5ed" d="m 89.27,143.05 .18,.18 z"/><path fill="#6899e8" d="m 89.04,143.11 .12,.06 z"/><path fill="#a9a5e6" d="m 88.75,143.05 .18,.18 z"/><path fill="#a6dff4" d="m 85.04,143.05 v .18 h 1.06 l -1.06,-.18 m 2.47,0 v .18 h 1.23 z"/><path fill="#66daef" d="m 84.81,143.11 .12,.06 z"/><path fill="#a6dff4" d="m 79.04,143.05 .18,.18 z"/><path fill="#6899e8" d="m 89.8,142.88 v .18 h .53 z"/><path fill="#a9a5e6" d="m 89.63,142.88 .18,.18 z"/><path fill="#a6dff4" d="m 84.16,142.88 v .18 h .71 l -.71,-.18 m 4.76,0 v .18 h .71 z"/><path fill="#66daef" d="m 79.04,142.88 .18,.18 -.18,-.18 m 4.88,.06 .12,.06 z"/><path fill="#a9a5e6" d="m 102.33,142.7 -.53,.71 z"/><path fill="#6899e8" d="m 90.45,142.76 .12,.06 z"/><path fill="#a6dff4" d="m 83.63,142.7 .18,.18 -.18,-.18 m 6.47,.06 .12,.06 z"/><path fill="#66daef" d="m 83.45,142.7 .18,.18 z"/><path fill="#6899e8" d="m 91.04,142.52 .18,.18 z"/><path fill="#a9a5e6" d="m 90.86,142.52 .18,.18 z"/><path fill="#a6dff4" d="m 83.1,142.52 .18,.18 -.18,-.18 m 7.58,0 .18,.18 z"/><path fill="#66daef" d="m 82.92,142.52 .18,.18 z"/><path fill="#a6dff4" d="m 104.44,142.35 .18,.18 -.18,-.18 m -25.75,.18 .35,.35 z"/><path fill="#7e65d5" d="m 104.09,142.35 .18,.18 z"/><path fill="#a6dff4" d="m 103.92,142.35 .35,.35 z"/><path fill="#412edc" d="m 102.5,142.35 .18,.18 z"/><path fill="#6899e8" d="m 91.57,142.35 .18,.18 z"/><path fill="#a9a5e6" d="m 91.39,142.35 .18,.18 z"/><path fill="#a6dff4" d="m 91.16,142.41 .12,.06 z"/><path fill="#66daef" d="m 78.69,142.35 .35,.35 -.35,-.35 m 3.7,0 .18,.18 z"/><path fill="#a9a5e6" d="m 104.62,142.17 .18,.18 z"/><path fill="#7e65d5" d="m 104.44,142.17 .18,.18 z"/><path fill="#412edc" d="m 104.27,142.17 .18,.18 z"/><path fill="#a6dff4" d="m 103.03,142.17 -.35,.53 z"/><path fill="#6899e8" d="m 92.1,142.17 .18,.18 z"/><path fill="#a9a5e6" d="m 91.92,142.17 .18,.18 z"/><path fill="#a6dff4" d="m 82.22,142.17 v .18 l .71,.18 v -.18 l -.71,-.18 m 9.47,.06 .12,.06 z"/><path fill="#a9a5e6" d="m 104.97,141.99 .18,.18 z"/><path fill="#7e65d5" d="m 104.8,141.99 .18,.18 z"/><path fill="#a9a5e6" d="m 103.21,141.99 .18,.18 z"/><path fill="#6899e8" d="m 92.45,141.99 .18,.18 z"/><path fill="#a9a5e6" d="m 92.27,141.99 .18,.18 z"/><path fill="#66daef" d="m 81.87,141.99 .35,.35 z"/><path fill="#7e65d5" d="m 105.15,141.82 .18,.18 z"/><path fill="#7632dd" d="m 104.97,141.82 .18,.18 z"/><path fill="#412edc" d="m 93.27,141.88 .12,.06 -.12,-.06 m 9.58,-.06 .18,.18 z"/><path fill="#6899e8" d="m 92.8,141.82 .18,.18 z"/><path fill="#a6dff4" d="m 81.69,141.82 .18,.18 -.18,-.18 m 10.94,0 .18,.18 z"/><path fill="#66daef" d="m 81.51,141.82 .18,.18 z"/><path fill="#7e65d5" d="m 105.33,141.64 .18,.18 z"/><path fill="#a6dff4" d="m 103.56,141.64 -.18,.35 z"/><path fill="#7e65d5" d="m 103.39,141.64 -.88,1.06 z"/><path fill="#412edc" d="m 93.68,141.64 .18,.18 -.18,-.18 m 9.53,0 .18,.18 z"/><path fill="#6899e8" d="m 93.33,141.64 .18,.18 z"/><path fill="#a9a5e6" d="m 93.16,141.64 .18,.18 z"/><path fill="#a6dff4" d="m 92.98,141.64 .18,.18 z"/><path fill="#66daef" d="m 78.34,141.64 .18,.18 z"/><path fill="#a9a5e6" d="m 105.86,141.47 -.53,.35 v .18 l .71,-.35 z"/><path fill="#7632dd" d="m 105.68,141.47 .18,.18 z"/><path fill="#412edc" d="m 104.97,141.47 .18,.18 z"/><path fill="#a9a5e6" d="m 104.8,141.47 -.53,1.06 h .18 z"/><path fill="#6899e8" d="m 93.68,141.47 .18,.18 z"/><path fill="#a9a5e6" d="m 93.51,141.47 .18,.18 z"/><path fill="#a6dff4" d="m 81.16,141.47 .35,.35 -.35,-.35 m 12.17,0 .18,.18 z"/><path fill="#66daef" d="m 80.98,141.47 .35,.35 z"/><path fill="#a6dff4" d="m 78.16,141.47 .35,.88 h .18 z"/><path fill="#a9a5e6" d="m 106.21,141.29 .18,.18 z"/><path fill="#7632dd" d="m 106.03,141.29 .18,.18 z"/><path fill="#7e65d5" d="m 104.97,141.29 .18,.18 z"/><path fill="#412edc" d="m 103.39,141.29 .18,.18 z"/><path fill="#6899e8" d="m 93.86,141.29 .18,.18 z"/><path fill="#a6dff4" d="m 80.81,141.29 .18,.18 -.18,-.18 m 12.88,0 .18,.18 z"/><path fill="#66daef" d="m 78.16,141.29 .18,.18 z"/><path fill="#a9a5e6" d="m 106.56,141.11 .18,.18 z"/><path fill="#7e65d5" d="m 106.38,141.11 .18,.18 z"/><path fill="#412edc" d="m 106.21,141.11 .18,.18 z"/><path fill="#7e65d5" d="m 105.15,141.11 .18,.18 z"/><path fill="#a9a5e6" d="m 103.92,141.11 -.35,.53 z"/><path fill="#380db4" d="m 94.57,141.11 .18,.18 -.18,-.18 m 9,0 -1.76,1.94 c .66,-.32 1.81,-1.14 1.76,-1.94 z"/><path fill="#412edc" d="m 94.39,141.11 .18,.18 z"/><path fill="#6899e8" d="m 94.21,141.11 .18,.18 z"/><path fill="#a6dff4" d="m 94.04,141.11 .18,.18 z"/><path fill="#66daef" d="m 80.46,141.11 .18,.18 z"/><path fill="#a6dff4" d="m 77.99,141.11 .18,.18 z"/><path fill="#7e65d5" d="m 106.74,140.94 .18,.18 z"/><path fill="#7632dd" d="m 106.56,140.94 .18,.18 z"/><path fill="#7e65d5" d="m 103.92,140.94 .18,.18 z"/><path fill="#380db4" d="m 94.92,140.94 .18,.18 z"/><path fill="#6899e8" d="m 94.57,140.94 .18,.18 z"/><path fill="#a6dff4" d="m 89.45,140.94 .18,.18 z"/><path fill="#a9a5e6" d="m 88.92,140.94 v .18 h .53 z"/><path fill="#a6dff4" d="m 80.28,140.94 .18,.18 z"/><path fill="#66daef" d="m 77.99,140.94 .18,.18 z"/><path fill="#a6dff4" d="m 107.27,140.76 .18,.18 z"/><path fill="#a9a5e6" d="m 105.33,140.76 -.35,.53 .35,-.53 m 1.76,0 -.18,.35 z"/><path fill="#380db4" d="m 103.8,140.88 .06,.12 z"/><path fill="#7e65d5" d="m 94.92,140.76 .18,.18 z"/><path fill="#a9a5e6" d="m 94.74,140.76 .18,.18 z"/><path fill="#a6dff4" d="m 94.57,140.76 -.18,.35 z"/><path fill="#a9a5e6" d="m 89.63,140.76 .18,.18 z"/><path fill="#7e65d5" d="m 89.45,140.76 .18,.18 z"/><path fill="#412edc" d="m 88.92,140.76 .18,.18 z"/><path fill="#7632dd" d="m 105.5,140.58 .18,.18 -.18,-.18 m 1.76,0 .18,.18 z"/><path fill="#a9a5e6" d="m 104.27,140.58 -.18,.35 z"/><path fill="#380db4" d="m 103.92,140.58 .18,.18 z"/><path fill="#6899e8" d="m 95.1,140.58 .18,.18 z"/><path fill="#a6dff4" d="m 94.92,140.58 .18,.18 z"/><path fill="#a9a5e6" d="m 89.98,140.58 .18,.18 z"/><path fill="#412edc" d="m 89.1,140.58 .18,.18 z"/><path fill="#66daef" d="m 79.93,140.58 .35,.35 z"/><path fill="#a6dff4" d="m 77.81,140.58 .18,.18 z"/><path fill="#7632dd" d="m 107.44,140.41 .18,.18 z"/><path fill="#a9a5e6" d="m 105.5,140.41 .18,.18 z"/><path fill="#a6dff4" d="m 104.44,140.41 .18,.18 z"/><path fill="#7e65d5" d="m 104.27,140.41 .18,.18 z"/><path fill="#115ce7" d="m 96.15,140.41 -1.06,.71 -.35,-.18 -.88,.88 -.35,.18 -3.35,.96 -4.06,.45 v .18 l 1.23,.18 v .18 c -1.32,1.09 .83,1.41 1.59,1.41 -.53,.87 -1.73,.83 -2.65,1.06 l .53,.53 v .18 l -1.94,-.18 v .18 l 4.59,.65 3.88,-.47 c -3e-6,-.56 .46,-.3 .88,-.18 l .66,-3 2.34,-3.35 -.71,.18 z"/><path fill="#380db4" d="m 95.62,140.41 .18,.18 z"/><path fill="#7e65d5" d="m 95.45,140.41 .18,.18 z"/><path fill="#a9a5e6" d="m 95.27,140.41 .18,.18 z"/><path fill="#7e65d5" d="m 89.27,140.41 .18,.18 -.18,-.18 m .88,0 .18,.18 z"/><path fill="#66daef" d="m 77.81,140.41 .18,.18 z"/><path fill="#a9a5e6" d="m 107.8,140.23 -.35,.53 z"/><path fill="#7e65d5" d="m 105.74,140.35 .06,.12 z"/><path fill="#412edc" d="m 104.09,140.23 -.18,.35 h .35 z"/><path fill="#380db4" d="m 95.92,140.29 .12,.06 z"/><path fill="#a9a5e6" d="m 95.62,140.23 .18,.18 z"/><path fill="#a6dff4" d="m 90.69,140.23 .18,.18 -.18,-.18 m 4.76,0 .18,.18 z"/><path fill="#a9a5e6" d="m 89.27,140.23 -.35,.53 .35,-.53 m 1.23,0 -.18,.35 z"/><path fill="#a6dff4" d="m 108.15,140.05 .18,.18 z"/><path fill="#7e65d5" d="m 95.98,140.05 .18,.18 -.18,-.18 m 8.47,0 .18,.18 -.18,-.18 m 1.41,0 .18,.18 z"/><path fill="#6899e8" d="m 95.8,140.05 .18,.18 z"/><path fill="#7e65d5" d="m 90.69,140.05 .18,.18 z"/><path fill="#6899e8" d="m 89.27,140.05 .18,.18 z"/><path fill="#a6dff4" d="m 79.4,140.05 .53,.53 z"/><path fill="#7e65d5" d="m 108.15,139.88 -.18,.35 z"/><path fill="#a9a5e6" d="m 104.62,139.88 -.18,.53 .18,-.53 m 1.23,0 -.18,.35 z"/><path fill="#380db4" d="m 96.33,139.88 .18,.18 z"/><path fill="#7e65d5" d="m 96.15,139.88 .18,.18 z"/><path fill="#a9a5e6" d="m 91.04,139.88 -.18,.35 .18,-.35 m 4.94,0 .18,.18 z"/><path fill="#412edc" d="m 89.27,139.88 .18,.18 z"/><path fill="#a6dff4" d="m 77.63,139.88 v .53 h .18 z"/><path fill="#7e65d5" d="m 108.32,139.7 .18,.18 z"/><path fill="#7632dd" d="m 106.03,139.7 .18,.18 z"/><path fill="#a6dff4" d="m 105.86,139.7 .18,.18 z"/><path fill="#380db4" d="m 96.51,139.7 .18,.18 z"/><path fill="#a6dff4" d="m 91.39,139.7 .18,.18 z"/><path fill="#380db4" d="m 90.69,139.7 -.71,.53 v .18 l 1.06,-.71 z"/><path fill="#7e65d5" d="m 89.1,139.7 .18,.18 z"/><path fill="#a9a5e6" d="m 88.57,139.7 v .18 l .71,.18 v -.18 z"/><path fill="#a6dff4" d="m 88.39,139.7 .18,.18 z"/><path fill="#a9a5e6" d="m 104.8,139.53 .18,.18 -.18,-.18 m 1.23,0 .18,.18 -.18,-.18 m 2.65,0 -.35,.53 z"/><path fill="#6899e8" d="m 96.51,139.53 -.18,.35 z"/><path fill="#7e65d5" d="m 91.39,139.53 -.18,.35 z"/><path fill="#412edc" d="m 88.75,139.53 .18,.18 z"/><path fill="#7e65d5" d="m 88.51,139.58 .12,.06 z"/><path fill="#a9a5e6" d="m 87.69,139.53 v .18 h .71 z"/><path fill="#a6dff4" d="m 87.45,139.58 .12,.06 z"/><path fill="#66daef" d="m 77.69,139.64 .06,.12 -.06,-.12 m 1.18,-.12 .53,.53 z"/><path fill="#7e65d5" d="m 108.85,139.35 .18,.18 z"/><path fill="#380db4" d="m 108.62,139.41 .12,.06 z"/><path fill="#7632dd" d="m 104.62,139.35 .18,.18 -.18,-.18 m 1.59,0 .18,.18 z"/><path fill="#115ce7" d="m 97.21,139.35 .18,.18 z"/><path fill="#6899e8" d="m 96.68,139.35 .18,.18 z"/><path fill="#a9a5e6" d="m 91.74,139.35 -.18,.35 z"/><path fill="#380db4" d="m 91.04,139.7 .53,-.35 z"/><path fill="#7e65d5" d="m 87.33,139.35 .18,.18 z"/><path fill="#6899e8" d="m 87.16,139.35 .18,.18 z"/><path fill="#a9a5e6" d="m 86.98,139.35 .18,.18 z"/><path fill="#a6dff4" d="m 86.81,139.35 .18,.18 z"/><path fill="#412edc" d="m 106.38,139.17 .18,.18 -.18,-.18 m 2.47,0 .18,.18 z"/><path fill="#a9a5e6" d="m 106.21,139.17 .18,.18 z"/><path fill="#7e65d5" d="m 104.8,139.17 -.18,.71 h .18 z"/><path fill="#412edc" d="m 104.44,139.17 .18,.18 z"/><path fill="#380db4" d="m 97.04,139.17 .18,.18 z"/><path fill="#a6dff4" d="m 92.1,139.17 .18,.18 z"/><path fill="#380db4" d="m 86.98,139.17 v .18 c 1.06,.2 2.64,.1 2.12,1.59 l .88,-.18 c -.56,-1.41 -1.58,-1.53 -3,-1.59 z"/><path fill="#7e65d5" d="m 86.63,139.17 .18,.18 z"/><path fill="#a9a5e6" d="m 86.45,139.17 .18,.18 z"/><path fill="#a6dff4" d="m 77.46,139.17 v .53 h .18 l -.18,-.53 m 8.82,0 .18,.18 z"/><path fill="#7e65d5" d="m 106.38,139 .18,.18 z"/><path fill="#a6dff4" d="m 104.97,139 .18,.18 z"/><path fill="#7632dd" d="m 104.8,139 .18,.18 z"/><path fill="#380db4" d="m 97.21,139 .18,.18 z"/><path fill="#6899e8" d="m 97.04,139 -.18,.35 z"/><path fill="#7e65d5" d="m 92.1,139 -.18,.35 z"/><path fill="#380db4" d="m 86.81,139 .18,.18 z"/><path fill="#7e65d5" d="m 86.28,139 .18,.18 z"/><path fill="#6899e8" d="m 86.04,139.06 .12,.06 z"/><path fill="#a9a5e6" d="m 85.75,139 .18,.18 z"/><path fill="#a6dff4" d="m 109.56,138.82 -.18,.35 .18,-.35 m -31.04,.18 .35,.35 -.35,-.35 m 7.06,0 .18,.18 z"/><path fill="#7e65d5" d="m 109.38,138.82 -.18,.35 z"/><path fill="#412edc" d="m 106.91,138.82 c .03,.72 .34,1.03 1.06,1.06 z"/><path fill="#a9a5e6" d="m 104.97,138.82 .18,.18 z"/><path fill="#7e65d5" d="m 97.21,138.82 .18,.18 z"/><path fill="#380db4" d="m 91.57,139.35 .71,-.53 z"/><path fill="#115ce7" d="m 85.75,138.82 .18,.18 z"/><path fill="#6899e8" d="m 85.57,138.82 .18,.18 z"/><path fill="#a9a5e6" d="m 85.39,138.82 .18,.18 z"/><path fill="#a6dff4" d="m 85.22,138.82 .18,.18 z"/><path fill="#66daef" d="m 78.34,138.82 .18,.18 z"/><path fill="#380db4" d="m 109.38,138.64 -.35,.53 z"/><path fill="#7e65d5" d="m 106.56,138.64 .18,.18 z"/><path fill="#380db4" d="m 104.62,138.64 -.35,1.76 h .18 z"/><path fill="#7e65d5" d="m 97.39,138.64 .18,.18 z"/><path fill="#a6dff4" d="m 97.21,138.64 -1.06,1.23 z"/><path fill="#a9a5e6" d="m 92.63,138.64 -.35,.53 z"/><path fill="#380db4" d="m 85.39,138.64 v .18 l 1.23,.18 v -.18 z"/><path fill="#115ce7" d="m 85.22,138.64 .18,.18 z"/><path fill="#6899e8" d="m 85.04,138.64 .18,.18 z"/><path fill="#a6dff4" d="m 84.87,138.64 .18,.18 z"/><path fill="#7e65d5" d="m 105.03,138.58 .06,.12 z"/><path fill="#412edc" d="m 104.8,138.47 v .53 h .18 z"/><path fill="#115ce7" d="m 97.57,138.47 .18,.18 z"/><path fill="#380db4" d="m 85.04,138.47 .18,.18 z"/><path fill="#115ce7" d="m 84.69,138.47 .18,.18 z"/><path fill="#6899e8" d="m 84.51,138.47 .18,.18 z"/><path fill="#a6dff4" d="m 78.16,138.47 .35,.35 -.35,-.35 m 6.17,0 .18,.18 z"/><path fill="#7e65d5" d="m 109.91,138.29 .18,.18 z"/><path fill="#412edc" d="m 106.97,138.41 .06,.12 z"/><path fill="#a9a5e6" d="m 106.56,138.29 -.18,.71 h .18 z"/><path fill="#a6dff4" d="m 105.21,138.41 .06,.12 z"/><path fill="#380db4" d="m 97.8,138.41 .06,.12 -.06,-.12 m 7,-.12 .18,.18 z"/><path fill="#a9a5e6" d="m 93.16,138.29 .18,.18 -.18,-.18 m 4.41,0 -.18,.35 z"/><path fill="#380db4" d="m 84.81,138.35 .12,.06 -.12,-.06 m 7.82,-.06 -.35,.53 z"/><path fill="#7e65d5" d="m 84.34,138.29 .18,.18 z"/><path fill="#a9a5e6" d="m 110.09,138.11 .18,.18 z"/><path fill="#380db4" d="m 109.91,138.11 -.18,.35 z"/><path fill="#7632dd" d="m 106.74,138.11 .18,.18 z"/><path fill="#a6dff4" d="m 106.56,138.11 .18,.18 z"/><path fill="#380db4" d="m 97.92,138.11 .18,.18 z"/><path fill="#6899e8" d="m 97.74,138.11 .18,.18 z"/><path fill="#a6dff4" d="m 93.33,138.11 .18,.18 z"/><path fill="#115ce7" d="m 85.57,138.11 .18,.18 z"/><path fill="#380db4" d="m 84.16,138.11 v .18 h .53 z"/><path fill="#a9a5e6" d="m 83.81,138.11 .53,.35 v -.18 z"/><path fill="#a6dff4" d="m 77.99,138.11 .18,.18 z"/><path fill="#7e65d5" d="m 97.92,137.94 .18,.18 -.18,-.18 m 8.82,0 .18,.18 -.18,-.18 m 3.53,0 .18,.18 z"/><path fill="#a6dff4" d="m 97.74,137.94 .18,.18 z"/><path fill="#7e65d5" d="m 93.33,137.94 -.53,.71 z"/><path fill="#380db4" d="m 83.63,137.94 v .18 h .53 z"/><path fill="#6899e8" d="m 83.45,137.94 .18,.18 z"/><path fill="#a6dff4" d="m 83.28,137.94 .53,.35 v -.18 z"/><path fill="#a9a5e6" d="m 106.74,137.76 .18,.18 z"/><path fill="#115ce7" d="m 98.09,137.76 .18,.18 z"/><path fill="#a9a5e6" d="m 97.92,137.76 .18,.18 z"/><path fill="#7e65d5" d="m 93.51,137.76 .18,.18 z"/><path fill="#a9a5e6" d="m 82.92,137.76 .18,.18 z"/><path fill="#66daef" d="m 77.46,137.76 v 1.41 h .18 l -.18,-1.41 m .41,.12 .06,.12 z"/><path fill="#412edc" d="m 106.97,137.7 .06,.12 z"/><path fill="#a6dff4" d="m 106.74,137.59 .18,.18 z"/><path fill="#6899e8" d="m 98.09,137.59 .18,.18 z"/><path fill="#7e65d5" d="m 93.68,137.59 .18,.18 z"/><path fill="#380db4" d="m 83.28,137.59 .18,.18 z"/><path fill="#7e65d5" d="m 82.92,137.59 .35,.35 z"/><path fill="#6899e8" d="m 82.75,137.59 .18,.18 z"/><path fill="#a9a5e6" d="m 82.57,137.59 .18,.18 z"/><path fill="#a6dff4" d="m 77.81,137.59 .18,.18 z"/><path fill="#a9a5e6" d="m 110.79,137.41 -.35,.53 z"/><path fill="#380db4" d="m 110.44,137.41 .18,.18 z"/><path fill="#7632dd" d="m 106.91,137.41 .18,.18 z"/><path fill="#115ce7" d="m 98.27,137.41 .18,.18 z"/><path fill="#a9a5e6" d="m 98.09,137.41 .18,.18 z"/><path fill="#380db4" d="m 82.87,137.47 .12,.06 z"/><path fill="#6899e8" d="m 82.4,137.41 .18,.18 z"/><path fill="#a6dff4" d="m 82.22,137.41 .18,.18 z"/><path fill="#66daef" d="m 77.63,137.41 .18,.18 z"/><path fill="#380db4" d="m 110.62,137.23 .18,.18 z"/><path fill="#412edc" d="m 107.27,137.23 .18,.18 z"/><path fill="#6899e8" d="m 98.27,137.23 .18,.18 z"/><path fill="#a6dff4" d="m 98.09,137.23 .18,.18 z"/><path fill="#115ce7" d="m 84.63,137.29 .12,.06 z"/><path fill="#380db4" d="m 82.22,137.23 v .18 h .53 z"/><path fill="#7e65d5" d="m 82.04,137.23 .18,.18 z"/><path fill="#a6dff4" d="m 81.87,137.23 .18,.18 z"/><path fill="#7e65d5" d="m 110.97,137.06 -.35,.53 z"/><path fill="#412edc" d="m 107.09,137.06 .18,.18 z"/><path fill="#7e65d5" d="m 106.97,137.17 .06,.12 z"/><path fill="#380db4" d="m 94.04,137.06 -1.23,1.06 v .18 z"/><path fill="#6899e8" d="m 81.69,137.06 .18,.18 z"/><path fill="#a6dff4" d="m 81.51,137.06 .18,.18 z"/><path fill="#02b5ed" d="m 77.46,137.06 c .27,3.47 1.25,6.42 4.23,8.52 .96,.67 1.97,1.33 3.17,1.19 v .18 h -.35 v .18 h 2.29 v -.18 h -.53 v -.53 c .85,-.16 2.37,-.11 2.65,-1.06 -.88,-.01 -2.57,-.23 -1.59,-1.41 v -.18 l -1.23,-.18 v -.18 h 1.94 v -.18 c -5.21,0 -7.81,-1.85 -10.58,-6.17 z"/><path fill="#380db4" d="m 98.45,136.88 -.18,1.06 h .18 z"/><path fill="#a9a5e6" d="m 94.57,136.88 -1.06,1.23 1.06,-1.23 m 3.76,.12 .06,.12 z"/><path fill="#7e65d5" d="m 94.39,136.88 .18,.18 z"/><path fill="#380db4" d="m 81.87,136.88 .18,.18 z"/><path fill="#7e65d5" d="m 81.51,136.88 .18,.18 z"/><path fill="#66daef" d="m 77.46,136.88 .18,.18 z"/><path fill="#a9a5e6" d="m 111.32,136.7 -.18,.35 z"/><path fill="#7632dd" d="m 107.15,136.82 .06,.12 z"/><path fill="#a9a5e6" d="m 105.15,136.7 v 1.59 h .18 z"/><path fill="#380db4" d="m 104.97,136.7 v 1.59 h .18 z"/><path fill="#7632dd" d="m 94.57,136.7 .18,.18 z"/><path fill="#a9a5e6" d="m 81.16,136.7 .35,.35 z"/><path fill="#a6dff4" d="m 111.5,136.53 .18,.18 -.18,-.18 m -30.52,.18 .18,.18 z"/><path fill="#7e65d5" d="m 111.32,136.53 .18,.18 z"/><path fill="#380db4" d="m 111.15,136.53 .18,.18 z"/><path fill="#412edc" d="m 104.8,136.53 .18,.18 z"/><path fill="#7e65d5" d="m 98.51,136.64 .06,.12 z"/><path fill="#a6dff4" d="m 94.92,136.53 -.18,.35 .18,-.35 m 3.41,.12 .06,.12 z"/><path fill="#7e65d5" d="m 94.74,136.53 .18,.18 z"/><path fill="#380db4" d="m 81.16,136.53 v .18 l .71,.18 v -.18 z"/><path fill="#115ce7" d="m 80.98,136.53 .18,.18 z"/><path fill="#a9a5e6" d="m 80.81,136.53 .18,.18 z"/><path fill="#a6dff4" d="m 80.46,136.35 .18,.18 -.18,-.18 m 24.75,.12 .06,.12 -.06,-.12 m -27.93,.06 v 1.23 h .18 v -.88 h .18 v .53 h .18 z"/><path fill="#a9a5e6" d="m 111.68,136.17 -.18,.35 z"/><path fill="#7e65d5" d="m 111.68,136 -.18,.35 .18,-.35 m -31.22,.18 .35,.35 -.35,-.35 m 14.46,0 .18,.18 -.18,-.18 m 10.11,.12 .06,.12 z"/><path fill="#a9a5e6" d="m 104.97,136 .18,.18 z"/><path fill="#412edc" d="m 104.8,136 .18,.18 z"/><path fill="#115ce7" d="m 80.28,136 .18,.18 -.18,-.18 m .82,.06 .12,.06 z"/><path fill="#a9a5e6" d="m 111.85,135.82 .18,.18 -.18,-.18 m -31.75,.18 .35,.35 z"/><path fill="#7e65d5" d="m 107.09,135.82 v .88 h .18 z"/><path fill="#a6dff4" d="m 104.97,135.82 .18,.18 z"/><path fill="#a9a5e6" d="m 98.45,135.82 v .71 h .18 z"/><path fill="#412edc" d="m 94.98,135.94 .06,.12 z"/><path fill="#115ce7" d="m 82.75,135.82 .18,.18 z"/><path fill="#380db4" d="m 80.1,135.82 v .18 l .71,.35 z"/><path fill="#a6dff4" d="m 79.75,135.82 .35,.35 z"/><path fill="#7632dd" d="m 104.86,135.76 .06,.12 z"/><path fill="#412edc" d="m 104.44,135.64 .18,.18 z"/><path fill="#7e65d5" d="m 94.92,135.64 .18,.18 z"/><path fill="#115ce7" d="m 79.75,135.64 .35,.35 z"/><path fill="#a9a5e6" d="m 112.03,135.47 .18,.18 z"/><path fill="#7632dd" d="m 104.62,135.47 .18,.18 z"/><path fill="#7e65d5" d="m 98.51,135.59 .06,.12 z"/><path fill="#a6dff4" d="m 98.33,135.59 .06,.12 z"/><path fill="#380db4" d="m 94.57,135.47 -.35,1.59 c .51,-.43 .96,-1.05 .35,-1.59 z"/><path fill="#115ce7" d="m 79.57,135.47 .18,.18 z"/><path fill="#a9a5e6" d="m 79.4,135.47 .35,.35 z"/><path fill="#a6dff4" d="m 112.21,135.29 .18,.18 z"/><path fill="#7e65d5" d="m 112.03,135.29 .18,.18 z"/><path fill="#7632dd" d="m 107.09,135.29 v .53 h .18 z"/><path fill="#a9a5e6" d="m 106.91,135.29 v 1.76 h .18 z"/><path fill="#7e65d5" d="m 104.62,135.29 .18,.18 z"/><path fill="#a6dff4" d="m 94.92,135.29 .18,.18 z"/><path fill="#a9a5e6" d="m 94.74,135.29 .18,1.23 h .18 z"/><path fill="#380db4" d="m 79.4,135.29 v .18 l .53,.18 -.53,-.35 m 14.93,.06 .12,.06 z"/><path fill="#a9a5e6" d="m 112.21,135.12 .18,.18 z"/><path fill="#380db4" d="m 107.27,135.12 c 0,2.86 -1.15,4.81 -2.82,7.06 1.43,-.52 3.14,-1.41 4.06,-2.65 -2.67,.94 -.65,-3.02 -1.23,-4.41 z"/><path fill="#a9a5e6" d="m 98.33,135.23 .06,.12 z"/><path fill="#7e65d5" d="m 94.57,135.12 .18,.18 z"/><path fill="#7632dd" d="m 94.39,135.12 .18,.18 z"/><path fill="#380db4" d="m 79.22,135.12 .18,.18 z"/><path fill="#7e65d5" d="m 104.44,134.94 .18,.18 z"/><path fill="#380db4" d="m 98.45,134.94 v .53 h .18 z"/><path fill="#7e65d5" d="m 98.27,134.94 .18,.18 z"/><path fill="#a6dff4" d="m 98.09,134.94 .18,.18 z"/><path fill="#a9a5e6" d="m 94.39,134.94 .18,.18 z"/><path fill="#7e65d5" d="m 94.21,134.94 .18,.18 z"/><path fill="#a9a5e6" d="m 112.38,134.76 .18,.18 z"/><path fill="#380db4" d="m 112.03,134.76 -.18,.88 h .18 z"/><path fill="#412edc" d="m 107.09,134.76 v .53 l .35,-.18 v -.18 z"/><path fill="#7e65d5" d="m 106.91,134.76 v .53 h .18 z"/><path fill="#a9a5e6" d="m 94.04,134.76 .18,.18 -.18,-.18 m 4.06,0 .18,.18 -.18,-.18 m 6.35,0 .35,.88 h .18 z"/><path fill="#7e65d5" d="m 93.86,134.76 .18,.18 z"/><path fill="#7632dd" d="m 93.68,134.76 .18,.18 z"/><path fill="#380db4" d="m 92.98,134.76 v .18 l 1.23,.18 z"/><path fill="#a6dff4" d="m 78.52,134.76 .71,.71 z"/><path fill="#7e65d5" d="m 112.38,134.59 -.18,.53 h .18 z"/><path fill="#380db4" d="m 107.09,134.59 .18,.18 z"/><path fill="#7632dd" d="m 106.91,134.59 .18,.18 z"/><path fill="#a6dff4" d="m 104.44,134.59 .18,.18 -.18,-.18 m 2.29,0 .18,.18 z"/><path fill="#7e65d5" d="m 104.27,134.59 .18,.18 z"/><path fill="#412edc" d="m 100.56,134.59 v 1.23 h .18 z"/><path fill="#380db4" d="m 98.27,134.59 .18,.18 z"/><path fill="#7e65d5" d="m 98.09,134.59 .18,.18 z"/><path fill="#a6dff4" d="m 93.86,134.59 .18,.18 z"/><path fill="#a9a5e6" d="m 93.63,134.65 .12,.06 z"/><path fill="#380db4" d="m 92.74,134.65 .12,.06 z"/><path fill="#412edc" d="m 78.87,134.59 .53,.53 -.53,-.53 m .71,0 .18,.18 z"/><path fill="#6899e8" d="m 78.52,134.59 .88,.88 z"/><path fill="#a9a5e6" d="m 104.27,134.41 .18,.18 z"/><path fill="#412edc" d="m 104.09,134.41 .18,.18 z"/><path fill="#6899e8" d="m 97.92,134.41 .18,.18 z"/><path fill="#a6dff4" d="m 93.33,134.41 .18,.18 z"/><path fill="#a9a5e6" d="m 93.16,134.41 .18,.18 z"/><path fill="#7e65d5" d="m 92.8,134.41 v .18 l .71,.18 v -.18 z"/><path fill="#380db4" d="m 78.52,134.41 .35,.35 z"/><path fill="#a9a5e6" d="m 112.56,134.23 .18,.18 z"/><path fill="#380db4" d="m 112.26,134.35 .06,.12 z"/><path fill="#a9a5e6" d="m 106.8,134.35 .06,.12 z"/><path fill="#412edc" d="m 103.92,134.23 .18,.18 z"/><path fill="#a9a5e6" d="m 92.57,134.29 .12,.06 -.12,-.06 m 5.17,-.06 .18,.18 z"/><path fill="#7e65d5" d="m 92.27,134.23 .18,.18 z"/><path fill="#412edc" d="m 78.46,134.29 .12,.06 -.12,-.06 m 1.59,0 .12,.06 z"/><path fill="#7e65d5" d="m 112.56,134.06 .18,.18 z"/><path fill="#7632dd" d="m 106.74,134.06 .18,.18 z"/><path fill="#a6dff4" d="m 104.09,134.06 .18,.18 -.18,-.18 m 2.47,0 .18,.18 z"/><path fill="#7e65d5" d="m 103.92,134.06 .35,.35 z"/><path fill="#380db4" d="m 97.92,134.06 .18,.18 z"/><path fill="#a6dff4" d="m 92.27,134.06 .18,.18 z"/><path fill="#a9a5e6" d="m 92.04,134.12 .12,.06 z"/><path fill="#7e65d5" d="m 91.69,134.12 .12,.06 z"/><path fill="#380db4" d="m 91.04,134.06 v .18 l 1.23,.18 v -.18 z"/><path fill="#7e65d5" d="m 78.16,134.06 .18,.18 z"/><path fill="#a9a5e6" d="m 77.99,134.06 .53,.53 z"/><path fill="#a6dff4" d="m 112.73,133.88 .18,.18 z"/><path fill="#412edc" d="m 106.91,133.88 .35,.71 z"/><path fill="#7e65d5" d="m 103.74,133.88 .18,.18 z"/><path fill="#380db4" d="m 97.74,133.88 .18,.18 z"/><path fill="#a6dff4" d="m 91.74,133.88 .18,.18 z"/><path fill="#a9a5e6" d="m 91.51,133.94 .12,.06 z"/><path fill="#7e65d5" d="m 91.16,133.94 .12,.06 z"/><path fill="#412edc" d="m 78.34,133.88 .18,.18 z"/><path fill="#115ce7" d="m 77.99,133.88 .18,.18 z"/><path fill="#412edc" d="m 103.39,133.7 .18,.18 z"/><path fill="#380db4" d="m 97.57,133.7 .18,.18 z"/><path fill="#a9a5e6" d="m 90.98,133.76 .12,.06 z"/><path fill="#7e65d5" d="m 90.69,133.7 .18,.18 z"/><path fill="#412edc" d="m 78.16,133.7 .18,.18 -.18,-.18 m .35,0 .18,.18 z"/><path fill="#7e65d5" d="m 77.81,133.7 .18,.18 z"/><path fill="#a6dff4" d="m 77.63,133.7 .35,.35 z"/><path fill="#7e65d5" d="m 106.56,133.53 .18,.18 z"/><path fill="#a6dff4" d="m 90.51,133.53 .18,.18 -.18,-.18 m 6.53,0 .71,.71 z"/><path fill="#a9a5e6" d="m 90.33,133.53 .18,.18 z"/><path fill="#7e65d5" d="m 90.16,133.53 .18,.18 z"/><path fill="#380db4" d="m 89.63,133.53 v .18 h .53 z"/><path fill="#412edc" d="m 77.99,133.53 .18,.18 z"/><path fill="#a9a5e6" d="m 77.63,133.53 .18,.18 z"/><path fill="#412edc" d="m 106.74,133.35 .18,.18 z"/><path fill="#a9a5e6" d="m 106.38,133.35 .18,.71 h .18 z"/><path fill="#412edc" d="m 103.21,133.35 .18,.18 z"/><path fill="#7e65d5" d="m 97.04,133.35 .88,.88 z"/><path fill="#a6dff4" d="m 90.16,133.35 .18,.18 z"/><path fill="#a9a5e6" d="m 89.98,133.35 .18,.18 z"/><path fill="#6899e8" d="m 89.8,133.35 .18,.18 z"/><path fill="#380db4" d="m 89.39,133.41 .12,.06 z"/><path fill="#7e65d5" d="m 77.63,133.35 .18,.18 z"/><path fill="#a6dff4" d="m 77.46,133.35 .18,.18 z"/><path fill="#7e65d5" d="m 106.38,133.18 .18,.18 -.18,-.18 m 6.35,0 .18,.18 z"/><path fill="#a6dff4" d="m 106.21,133.18 .18,.18 z"/><path fill="#412edc" d="m 103.03,133.18 .18,.18 z"/><path fill="#380db4" d="m 97.04,133.18 .35,.35 z"/><path fill="#a9a5e6" d="m 96.68,133.18 .35,.35 z"/><path fill="#a6dff4" d="m 89.8,133.18 .18,.18 z"/><path fill="#a9a5e6" d="m 89.63,133.18 .18,.18 z"/><path fill="#6899e8" d="m 89.45,133.18 .18,.18 z"/><path fill="#7e65d5" d="m 89.27,133.18 .18,.18 z"/><path fill="#412edc" d="m 81.34,133.18 .35,.35 z"/><path fill="#6899e8" d="m 77.46,133.18 .18,.18 z"/><path fill="#412edc" d="m 106.38,133 .18,.18 z"/><path fill="#a9a5e6" d="m 106.21,133 .18,.18 z"/><path fill="#412edc" d="m 102.68,133 .18,.18 z"/><path fill="#380db4" d="m 96.68,133 .18,.18 z"/><path fill="#a6dff4" d="m 89.27,133 .18,.18 -.18,-.18 m 7.06,0 .18,.18 z"/><path fill="#6899e8" d="m 89.1,133 .18,.18 z"/><path fill="#7e65d5" d="m 88.92,133 .18,.18 z"/><path fill="#380db4" d="m 77.63,133 .88,1.23 z"/><path fill="#a9a5e6" d="m 77.28,133 .18,.18 z"/><path fill="#380db4" d="m 112.56,132.82 v 1.06 h .18 z"/><path fill="#7632dd" d="m 106.21,132.82 .18,.18 z"/><path fill="#380db4" d="m 102.5,132.82 v .18 c 1.15,.94 1.82,2.13 2.29,3.53 h .18 c -.33,-1.44 -1.1,-3 -2.47,-3.7 z"/><path fill="#7e65d5" d="m 96.33,132.82 .18,.18 z"/><path fill="#a9a5e6" d="m 96.15,132.82 .18,.18 z"/><path fill="#a6dff4" d="m 95.98,132.82 .18,.18 z"/><path fill="#a9a5e6" d="m 88.75,132.82 .18,.18 z"/><path fill="#6899e8" d="m 88.57,132.82 .18,.18 z"/><path fill="#412edc" d="m 88.39,132.82 c .57,2.06 -2.16,3.38 -.35,5.47 l -3,-.35 c .12,-1.24 -2.33,-3.4 -3.35,-4.06 l .18,.71 -2.12,.18 .35,.71 -.35,-.18 v .18 l 2.12,1.23 .71,.88 .53,-.18 .88,.88 c .52,-.17 .64,-.26 .53,.18 l .53,-.18 -.18,.35 1.76,.18 2.45,.72 1.07,1.05 .88,-.88 -.18,.35 h .18 l .71,-.53 .71,-.53 .53,-.53 c .17,-.66 .75,-1.11 1.41,-1.23 l -.18,-.53 .53,-1.41 -.53,.18 -1.06,-.88 -.53,.18 -2.82,-1.41 -.53,.18 z"/><path fill="#380db4" d="m 88.22,132.82 .18,.18 z"/><path fill="#7e65d5" d="m 77.28,132.82 .18,.18 z"/><path fill="#a9a5e6" d="m 112.91,132.65 -.18,1.23 h .18 z"/><path fill="#412edc" d="m 106.38,132.65 .18,.18 z"/><path fill="#380db4" d="m 96.33,132.65 .18,.18 z"/><path fill="#6899e8" d="m 95.98,132.65 .18,.18 z"/><path fill="#a9a5e6" d="m 95.8,132.65 .18,.18 z"/><path fill="#a6dff4" d="m 88.57,132.65 .18,.18 z"/><path fill="#a9a5e6" d="m 88.39,132.65 .18,.18 z"/><path fill="#6899e8" d="m 88.22,132.65 .18,.18 z"/><path fill="#380db4" d="m 87.86,132.65 .18,.18 z"/><path fill="#412edc" d="m 106.21,132.47 .18,.18 z"/><path fill="#a9a5e6" d="m 102.5,132.47 1.59,1.59 -1.59,-1.59 m 3.35,0 .35,.35 z"/><path fill="#412edc" d="m 102.15,132.47 .18,.18 z"/><path fill="#380db4" d="m 101.97,132.47 .53,.35 v -.18 z"/><path fill="#7e65d5" d="m 95.62,132.47 .18,.18 z"/><path fill="#a6dff4" d="m 88.22,132.47 .18,.18 -.18,-.18 m 7.23,0 .35,.35 z"/><path fill="#a9a5e6" d="m 88.04,132.47 .18,.18 z"/><path fill="#6899e8" d="m 77.1,132.47 .18,.18 -.18,-.18 m 10.76,0 .18,.18 z"/><path fill="#7e65d5" d="m 105.86,132.29 .18,.18 z"/><path fill="#a6dff4" d="m 105.68,132.29 .18,.18 z"/><path fill="#7e65d5" d="m 102.15,132.29 .53,.53 z"/><path fill="#412edc" d="m 101.62,132.29 .18,.18 z"/><path fill="#380db4" d="m 95.62,132.29 .53,.35 v -.18 z"/><path fill="#a9a5e6" d="m 87.69,132.29 .18,.18 -.18,-.18 m 7.41,0 .18,.18 z"/><path fill="#412edc" d="m 77.1,132.29 .53,.53 z"/><path fill="#a6dff4" d="m 76.93,132.29 .35,.53 z"/><path fill="#412edc" d="m 106.03,132.12 .18,.18 z"/><path fill="#a9a5e6" d="m 101.97,132.12 .18,.18 z"/><path fill="#7e65d5" d="m 101.8,132.12 .18,.18 z"/><path fill="#412edc" d="m 101.27,132.12 .18,.18 z"/><path fill="#7e65d5" d="m 94.92,132.12 v .18 l .53,.18 z"/><path fill="#a9a5e6" d="m 94.74,132.12 .18,.18 z"/><path fill="#a6dff4" d="m 94.57,132.12 .18,.18 z"/><path fill="#a9a5e6" d="m 87.33,132.12 .18,.18 z"/><path fill="#380db4" d="m 86.98,132.12 .18,.18 z"/><path fill="#a9a5e6" d="m 76.93,132.12 .18,.18 z"/><path fill="#412edc" d="m 105.68,131.94 .18,.18 z"/><path fill="#a6dff4" d="m 101.8,131.94 .18,.18 z"/><path fill="#7e65d5" d="m 101.45,131.94 .18,.18 z"/><path fill="#380db4" d="m 95.04,132 .12,.06 -.12,-.06 m 6.06,-.06 v .18 l .88,.35 v -.18 z"/><path fill="#7e65d5" d="m 94.57,131.94 .18,.18 z"/><path fill="#a9a5e6" d="m 94.39,131.94 .18,.18 z"/><path fill="#a6dff4" d="m 87.16,131.94 .18,.18 -.18,-.18 m 7.06,0 .18,.18 z"/><path fill="#6899e8" d="m 86.98,131.94 .18,.18 z"/><path fill="#380db4" d="m 77.16,132.06 .06,.12 z"/><path fill="#7e65d5" d="m 76.93,131.94 .18,.18 z"/><path fill="#a6dff4" d="m 76.75,131.94 .18,.18 z"/><path fill="#380db4" d="m 94.51,131.82 .12,.06 z"/><path fill="#a9a5e6" d="m 94.04,131.76 .18,.18 z"/><path fill="#a6dff4" d="m 93.86,131.76 .18,.18 z"/><path fill="#a9a5e6" d="m 86.81,131.76 .18,.18 z"/><path fill="#7e65d5" d="m 86.63,131.76 .18,.18 z"/><path fill="#412edc" d="m 76.93,131.76 .18,.18 z"/><path fill="#a9a5e6" d="m 76.75,131.76 .18,.18 z"/><path fill="#412edc" d="m 105.5,131.59 .18,.18 z"/><path fill="#a9a5e6" d="m 101.09,131.59 v .18 l .71,.35 v -.18 z"/><path fill="#7e65d5" d="m 100.92,131.59 .35,.35 z"/><path fill="#412edc" d="m 94.04,131.59 .18,.18 -.18,-.18 m 6.35,0 .18,.18 -.18,-.18 m .35,0 .35,.53 z"/><path fill="#a9a5e6" d="m 93.51,131.59 .18,.18 z"/><path fill="#7e65d5" d="m 105.15,131.41 .18,.18 z"/><path fill="#a9a5e6" d="m 100.74,131.41 .18,.18 z"/><path fill="#7e65d5" d="m 100.56,131.41 .18,.18 z"/><path fill="#412edc" d="m 99.86,131.41 .18,.18 z"/><path fill="#7e65d5" d="m 93.51,131.41 .35,.35 z"/><path fill="#6899e8" d="m 93.33,131.41 .18,.18 z"/><path fill="#a9a5e6" d="m 93.16,131.41 .18,.18 z"/><path fill="#a6dff4" d="m 86.45,131.41 .35,.35 -.35,-.35 m 6.53,0 .18,.18 z"/><path fill="#6899e8" d="m 76.81,131.53 .06,.12 -.06,-.12 m 9.47,-.12 .35,.35 z"/><path fill="#380db4" d="m 105.15,131.24 1.59,2.82 h .18 c -.18,-1.15 -.86,-2.11 -1.76,-2.82 z"/><path fill="#a6dff4" d="m 100.56,131.24 .18,.18 z"/><path fill="#a9a5e6" d="m 100.39,131.24 .18,.18 z"/><path fill="#7e65d5" d="m 100.21,131.24 .18,.18 z"/><path fill="#7632dd" d="m 100.03,131.24 .18,.18 z"/><path fill="#380db4" d="m 99.68,131.24 v .18 l 1.06,.35 v -.18 z"/><path fill="#7632dd" d="m 99.15,131.24 v .18 l .71,.35 .38,2.04 .15,4.48 .53,-.18 -.35,.88 c .72,0 .04,3.72 -.18,4.41 1.8,.34 2,-1.66 3.53,-2.12 l -.18,-.53 h .53 v -.18 l -.35,.18 v -.18 l 1.23,-2.12 v -1.94 l -2.29,-3.35 -.71,-.88 z"/><path fill="#380db4" d="m 93.45,131.29 .12,.06 z"/><path fill="#6899e8" d="m 92.98,131.24 .18,.18 z"/><path fill="#a9a5e6" d="m 92.8,131.24 .18,.18 z"/><path fill="#a6dff4" d="m 92.63,131.24 .18,.18 z"/><path fill="#380db4" d="m 76.93,131.24 v .53 h .18 z"/><path fill="#7e65d5" d="m 76.75,131.24 .18,.18 z"/><path fill="#a6dff4" d="m 100.21,131.06 .18,.18 -.18,-.18 m -23.64,.18 .18,.18 z"/><path fill="#a9a5e6" d="m 100.03,131.06 .18,.18 z"/><path fill="#412edc" d="m 93.16,131.06 .18,.18 z"/><path fill="#380db4" d="m 92.92,131.12 .12,.06 z"/><path fill="#7e65d5" d="m 92.63,131.06 .18,.18 z"/><path fill="#a9a5e6" d="m 85.92,131.06 .35,.35 -.35,-.35 m 6.53,0 .18,.18 z"/><path fill="#412edc" d="m 76.93,131.06 .18,.18 z"/><path fill="#a9a5e6" d="m 76.57,131.06 .18,.18 z"/><path fill="#7e65d5" d="m 112.91,130.88 v 1.76 h .18 z"/><path fill="#412edc" d="m 104.8,130.88 .18,.18 z"/><path fill="#a9a5e6" d="m 99.68,130.88 .18,.18 -.18,-.18 m 4.76,0 1.41,1.41 z"/><path fill="#7e65d5" d="m 99.51,130.88 .53,.35 v -.18 z"/><path fill="#6899e8" d="m 92.1,130.88 .18,.18 z"/><path fill="#a6dff4" d="m 91.92,130.88 .18,.18 z"/><path fill="#412edc" d="m 104.44,130.71 .18,.18 z"/><path fill="#6899e8" d="m 104.27,130.71 .18,.18 z"/><path fill="#a6dff4" d="m 99.33,130.71 .18,.18 -.18,-.18 m 4.76,0 .18,.18 z"/><path fill="#380db4" d="m 98.74,130.76 .12,.06 z"/><path fill="#412edc" d="m 92.27,130.71 .18,.18 z"/><path fill="#7e65d5" d="m 91.92,130.71 .18,.18 z"/><path fill="#6899e8" d="m 76.63,130.82 .06,.12 -.06,-.12 m 8.76,-.12 .18,.18 -.18,-.18 m 6.35,0 .18,.18 z"/><path fill="#380db4" d="m 112.73,130.53 v 2.29 h .18 z"/><path fill="#7e65d5" d="m 98.62,130.53 .18,.18 -.18,-.18 m 5.47,0 .18,.18 z"/><path fill="#380db4" d="m 98.27,130.53 .18,.18 z"/><path fill="#412edc" d="m 92.1,130.53 .18,.18 z"/><path fill="#380db4" d="m 91.86,130.59 .12,.06 z"/><path fill="#a9a5e6" d="m 91.39,130.53 .35,.35 z"/><path fill="#a6dff4" d="m 91.22,130.53 .18,.18 z"/><path fill="#6899e8" d="m 85.22,130.53 .18,.18 z"/><path fill="#380db4" d="m 104.09,130.35 v .18 l 1.06,.71 v -.18 z"/><path fill="#a9a5e6" d="m 98.45,130.35 v .18 l .88,.35 v -.18 l -.88,-.35 m 5.29,0 .35,.35 z"/><path fill="#7e65d5" d="m 98.27,130.35 .18,.18 z"/><path fill="#380db4" d="m 91.51,130.41 .12,.06 z"/><path fill="#6899e8" d="m 91.04,130.35 .18,.18 z"/><path fill="#a6dff4" d="m 90.86,130.35 .18,.18 z"/><path fill="#6899e8" d="m 85.04,130.35 .18,.18 z"/><path fill="#a6dff4" d="m 103.39,130.18 .18,.18 z"/><path fill="#a9a5e6" d="m 98.09,130.18 .18,.18 z"/><path fill="#7e65d5" d="m 97.92,130.18 .18,.18 z"/><path fill="#380db4" d="m 97.57,130.18 .18,.18 z"/><path fill="#6899e8" d="m 90.69,130.18 .18,.18 z"/><path fill="#a9a5e6" d="m 90.51,130.18 .18,.18 z"/><path fill="#412edc" d="m 80.34,130.29 .06,.12 z"/><path fill="#7e65d5" d="m 112.73,130 .18,.18 z"/><path fill="#380db4" d="m 103.74,130 .18,.18 z"/><path fill="#7e65d5" d="m 103.39,130 .35,.35 z"/><path fill="#a6dff4" d="m 97.74,130 .18,.18 z"/><path fill="#a9a5e6" d="m 97.57,130 .18,.18 z"/><path fill="#7e65d5" d="m 97.39,130 .18,.18 z"/><path fill="#380db4" d="m 96.86,130 v .18 h .53 z"/><path fill="#7e65d5" d="m 90.51,130 .18,.18 z"/><path fill="#6899e8" d="m 90.33,130 .18,.18 z"/><path fill="#a6dff4" d="m 84.87,130 1.06,1.06 z"/><path fill="#380db4" d="m 103.39,129.82 .18,.18 z"/><path fill="#a9a5e6" d="m 103.03,129.82 .35,.35 z"/><path fill="#a6dff4" d="m 97.39,129.82 .18,.18 -.18,-.18 m 5.47,0 .18,.18 z"/><path fill="#7e65d5" d="m 96.86,129.82 .18,.18 z"/><path fill="#380db4" d="m 96.51,129.82 .18,.18 z"/><path fill="#412edc" d="m 90.51,129.82 .18,.18 z"/><path fill="#380db4" d="m 90.33,129.82 .18,.18 z"/><path fill="#a9a5e6" d="m 89.98,129.82 .35,.35 z"/><path fill="#a6dff4" d="m 89.8,129.82 .18,.18 z"/><path fill="#380db4" d="m 103.15,129.71 .12,.06 z"/><path fill="#a9a5e6" d="m 102.68,129.65 .18,.18 z"/><path fill="#a6dff4" d="m 102.5,129.65 .18,.18 z"/><path fill="#a9a5e6" d="m 96.86,129.65 .53,.35 v -.18 z"/><path fill="#6899e8" d="m 96.68,129.65 .18,.18 z"/><path fill="#7e65d5" d="m 96.51,129.65 .18,.18 z"/><path fill="#115ce7" d="m 96.33,129.65 .18,.18 z"/><path fill="#412edc" d="m 95.8,129.65 .18,.18 -.18,-.18 m .35,0 -.18,.53 -.35,.18 -.53,-.18 -.71,1.41 v .18 l .35,.35 .53,-.18 .18,.53 1.06,.18 v .53 l .35,-.18 v .35 l .35,-.18 .71,1.23 .53,.18 c .05,2.48 -.31,5.04 -3.17,6 v .18 l 1.06,-.35 .18,.53 .71,-.18 -2.45,3.35 -.55,2.65 v .18 l 1.59,-.35 c -3e-6,-.54 .61,-.41 1.06,-.35 l 1.59,-1.23 2.29,-.88 .18,-.53 -.53,-.18 c .3,-.67 1.03,-4.26 .18,-4.41 l .35,-.88 -.53,.18 -.53,-6.53 -.71,-.35 v -.18 l .53,.18 -1.06,-.53 -.35,-.18 -1.41,-.88 z"/><path fill="#380db4" d="m 89.98,129.65 .18,.18 z"/><path fill="#a9a5e6" d="m 112.73,129.47 .18,1.41 h .18 l -.35,-1.41 m -28.22,.18 .35,.35 -.35,-.35 m 5.12,0 .18,.18 z"/><path fill="#380db4" d="m 112.56,129.47 v 1.06 h .18 z"/><path fill="#7632dd" d="m 103.21,129.47 .18,.18 z"/><path fill="#a9a5e6" d="m 96.33,129.47 .18,.18 -.18,-.18 m 6,0 .18,.18 z"/><path fill="#6899e8" d="m 96.15,129.47 .18,.18 z"/><path fill="#380db4" d="m 95.74,129.53 .12,.06 z"/><path fill="#a9a5e6" d="m 89.27,129.47 .18,.18 z"/><path fill="#6899e8" d="m 84.34,129.47 .18,.18 z"/><path fill="#a6dff4" d="m 76.4,129.47 v 1.06 h .18 z"/><path fill="#7e65d5" d="m 112.56,129.29 .18,.18 z"/><path fill="#380db4" d="m 102.5,129.29 .18,.18 z"/><path fill="#7e65d5" d="m 102.15,129.29 .18,.18 z"/><path fill="#a9a5e6" d="m 101.97,129.29 .18,.18 z"/><path fill="#a6dff4" d="m 95.98,129.29 .18,.18 -.18,-.18 m 5.82,0 .18,.18 z"/><path fill="#a9a5e6" d="m 95.8,129.29 .18,.18 z"/><path fill="#380db4" d="m 95.39,129.35 .12,.06 z"/><path fill="#412edc" d="m 95.1,129.29 .18,.18 z"/><path fill="#6899e8" d="m 89.1,129.29 .18,.18 z"/><path fill="#a6dff4" d="m 84.34,129.29 .35,.35 z"/><path fill="#a9a5e6" d="m 112.56,129.12 .18,.18 z"/><path fill="#7e65d5" d="m 101.8,129.12 .18,.18 z"/><path fill="#a9a5e6" d="m 101.62,129.12 .18,.18 z"/><path fill="#a6dff4" d="m 95.62,129.12 .18,.18 z"/><path fill="#a9a5e6" d="m 95.45,129.12 .18,.18 z"/><path fill="#6899e8" d="m 95.27,129.12 .18,.18 z"/><path fill="#412edc" d="m 89.22,129.18 .12,.06 -.12,-.06 m 5.64,0 .12,.06 z"/><path fill="#a9a5e6" d="m 84.16,129.12 .18,.18 -.18,-.18 m 4.59,0 .35,.35 z"/><path fill="#380db4" d="m 101.62,128.94 v .18 l .88,.18 v -.18 z"/><path fill="#7e65d5" d="m 101.45,128.94 .18,.18 z"/><path fill="#a9a5e6" d="m 101.27,128.94 .18,.18 z"/><path fill="#a6dff4" d="m 95.27,128.94 .18,.18 z"/><path fill="#a9a5e6" d="m 95.1,128.94 .18,.18 z"/><path fill="#7e65d5" d="m 94.92,128.94 .18,.18 z"/><path fill="#412edc" d="m 88.92,128.94 .18,.18 z"/><path fill="#380db4" d="m 88.75,128.94 .18,.18 z"/><path fill="#6899e8" d="m 88.57,128.94 .18,.18 z"/><path fill="#7e65d5" d="m 101.09,128.77 .18,.18 -.18,-.18 m 11.29,0 .18,.18 z"/><path fill="#a9a5e6" d="m 94.74,128.77 .18,.18 -.18,-.18 m 6.17,0 .18,.18 z"/><path fill="#7e65d5" d="m 88.39,128.77 .18,.18 z"/><path fill="#a6dff4" d="m 83.98,128.77 .18,.18 z"/><path fill="#6899e8" d="m 83.81,128.77 .35,.35 z"/><path fill="#7e65d5" d="m 112.21,128.59 .18,.18 -.18,-.18 m -35.63,.18 .18,.18 z"/><path fill="#380db4" d="m 101.21,128.65 .12,.06 z"/><path fill="#7e65d5" d="m 100.74,128.59 .18,.18 z"/><path fill="#a9a5e6" d="m 100.56,128.59 .18,.18 z"/><path fill="#a6dff4" d="m 100.39,128.59 .18,.18 z"/><path fill="#6899e8" d="m 94.21,128.59 .18,.18 z"/><path fill="#412edc" d="m 94.04,128.59 .53,.35 v -.18 z"/><path fill="#380db4" d="m 93.86,128.59 .18,.18 z"/><path fill="#7e65d5" d="m 88.22,128.59 .18,.18 z"/><path fill="#a9a5e6" d="m 83.81,128.59 .18,.18 -.18,-.18 m 4.23,0 .35,.35 z"/><path fill="#7e65d5" d="m 100.39,128.41 .18,.18 z"/><path fill="#a9a5e6" d="m 100.21,128.41 .18,.18 z"/><path fill="#a6dff4" d="m 94.21,128.41 .53,.35 v -.18 l -.53,-.18 m 5.82,0 .18,.18 z"/><path fill="#a9a5e6" d="m 94.04,128.41 .18,.18 z"/><path fill="#412edc" d="m 88.22,128.41 .18,.18 z"/><path fill="#6899e8" d="m 76.63,128.53 .06,.12 -.06,-.12 m 7,-.12 .18,.18 z"/><path fill="#7e65d5" d="m 112.03,128.24 .18,.18 z"/><path fill="#380db4" d="m 100.03,128.24 v .18 l 1.06,.18 v -.18 z"/><path fill="#7e65d5" d="m 99.86,128.24 .18,.18 z"/><path fill="#a9a5e6" d="m 99.68,128.24 .18,.18 z"/><path fill="#a6dff4" d="m 93.86,128.24 .18,.18 -.18,-.18 m 5.64,0 .18,.18 z"/><path fill="#6899e8" d="m 87.69,128.24 .35,.35 -.35,-.35 m 6,0 .35,.35 z"/><path fill="#a6dff4" d="m 83.63,128.24 .35,.35 z"/><path fill="#a9a5e6" d="m 112.03,128.06 .35,.71 h .18 l -.53,-.71 m -35.45,.18 .18,.18 z"/><path fill="#380db4" d="m 111.85,128.06 .18,.71 h .18 z"/><path fill="#7e65d5" d="m 99.45,128.12 .12,.06 z"/><path fill="#a9a5e6" d="m 99.15,128.06 .18,.18 z"/><path fill="#a6dff4" d="m 98.98,128.06 .18,.18 z"/><path fill="#380db4" d="m 93.16,128.06 .18,.18 z"/><path fill="#02b5ed" d="m 83.45,128.06 .18,.18 z"/><path fill="#412edc" d="m 76.93,128.06 .18,.18 z"/><path fill="#7e65d5" d="m 76.75,128.06 .18,.18 z"/><path fill="#a6dff4" d="m 76.57,128.06 .18,.18 z"/><path fill="#380db4" d="m 99.51,127.88 .18,.18 z"/><path fill="#7e65d5" d="m 98.98,127.88 .18,.18 z"/><path fill="#a9a5e6" d="m 98.74,127.94 .12,.06 z"/><path fill="#a6dff4" d="m 83.45,127.88 .18,.18 -.18,-.18 m 9.88,0 .35,.35 -.35,-.35 m 5.12,0 .18,.18 z"/><path fill="#380db4" d="m 76.93,127.88 .18,.18 z"/><path fill="#6899e8" d="m 76.75,127.88 .18,.18 z"/><path fill="#a6dff4" d="m 111.85,127.71 .18,.18 z"/><path fill="#7e65d5" d="m 111.68,127.71 .35,.35 z"/><path fill="#380db4" d="m 98.8,127.71 v .18 h .53 z"/><path fill="#7e65d5" d="m 98.45,127.71 .18,.18 z"/><path fill="#a9a5e6" d="m 98.27,127.71 .18,.18 z"/><path fill="#a6dff4" d="m 98.09,127.71 .18,.18 z"/><path fill="#380db4" d="m 87.33,127.71 .18,.18 z"/><path fill="#6899e8" d="m 87.16,127.71 .35,.35 z"/><path fill="#380db4" d="m 98.09,127.53 v .18 h .53 z"/><path fill="#7e65d5" d="m 97.92,127.53 .18,.18 z"/><path fill="#a9a5e6" d="m 97.74,127.53 .18,.18 z"/><path fill="#a6dff4" d="m 97.57,127.53 .18,.18 z"/><path fill="#a9a5e6" d="m 92.8,127.53 .53,.53 z"/><path fill="#6899e8" d="m 83.34,127.65 .06,.12 z"/><path fill="#412edc" d="m 77.1,127.53 .18,.18 z"/><path fill="#a9a5e6" d="m 76.81,127.65 .06,.12 z"/><path fill="#7e65d5" d="m 97.51,127.41 .12,.06 z"/><path fill="#6899e8" d="m 97.21,127.35 .18,.18 z"/><path fill="#a6dff4" d="m 92.63,127.35 .18,.18 -.18,-.18 m 4.41,0 .18,.18 z"/><path fill="#02b5ed" d="m 83.1,127.35 .18,.18 z"/><path fill="#380db4" d="m 77.1,127.35 .18,.18 z"/><path fill="#6899e8" d="m 76.93,127.35 .18,.18 z"/><path fill="#a6dff4" d="m 76.75,127.35 .18,.18 z"/><path fill="#a9a5e6" d="m 111.32,127.18 .53,.53 z"/><path fill="#380db4" d="m 97.51,127.24 .12,.06 -.12,-.06 m 13.64,-.06 .18,.53 h .18 z"/><path fill="#7e65d5" d="m 97.04,127.18 .18,.18 z"/><path fill="#a9a5e6" d="m 92.45,127.18 .18,.18 -.18,-.18 m 4.35,.06 .12,.06 z"/><path fill="#a6dff4" d="m 83.34,127.3 .06,.12 -.06,-.12 m 3.12,-.12 1.06,1.06 z"/><path fill="#6899e8" d="m 83.1,127.18 .18,.18 z"/><path fill="#412edc" d="m 77.1,127.18 .18,.18 z"/><path fill="#a9a5e6" d="m 76.93,127.18 .18,.18 z"/><path fill="#a6dff4" d="m 111.32,127 .18,.18 z"/><path fill="#115ce7" d="m 96.68,127 .18,.18 z"/><path fill="#6899e8" d="m 96.51,127 .18,.18 z"/><path fill="#a6dff4" d="m 96.33,127 .35,.35 z"/><path fill="#6899e8" d="m 86.45,127 .35,.35 -.35,-.35 m 5.82,0 .18,.18 z"/><path fill="#a9a5e6" d="m 83.1,127 .18,.18 z"/><path fill="#6899e8" d="m 77.1,127 .18,.18 z"/><path fill="#7e65d5" d="m 96.15,126.83 .18,.18 z"/><path fill="#a9a5e6" d="m 95.98,126.83 .18,.18 z"/><path fill="#6899e8" d="m 92.1,126.83 .18,.18 z"/><path fill="#a9a5e6" d="m 86.28,126.83 .18,.18 z"/><path fill="#a6dff4" d="m 77.1,126.83 -.18,.35 z"/><path fill="#380db4" d="m 96.33,126.65 1.06,.53 v -.18 l -1.06,-.35 m 14.29,0 .18,.18 z"/><path fill="#7e65d5" d="m 95.8,126.65 .18,.18 z"/><path fill="#a6dff4" d="m 92.1,126.65 .35,.35 z"/><path fill="#7e65d5" d="m 86.28,126.65 .18,.18 z"/><path fill="#a6dff4" d="m 86.1,126.65 .18,.18 z"/><path fill="#6899e8" d="m 77.28,126.65 .18,.18 z"/><path fill="#380db4" d="m 110.44,126.47 .18,.18 z"/><path fill="#7e65d5" d="m 95.62,126.47 .18,.18 z"/><path fill="#a9a5e6" d="m 95.45,126.47 .35,.35 z"/><path fill="#6899e8" d="m 86.1,126.47 .18,.18 -.18,-.18 m 5.82,0 .18,.18 z"/><path fill="#380db4" d="m 77.63,126.47 .18,.18 z"/><path fill="#7e65d5" d="m 77.46,126.47 .18,.18 z"/><path fill="#a6dff4" d="m 77.28,126.47 .18,.18 z"/><path fill="#7e65d5" d="m 95.27,126.3 .18,.18 z"/><path fill="#a6dff4" d="m 83.1,126.3 v .71 h .18 l -.18,-.71 m 2.82,0 .18,.18 -.18,-.18 m 6,0 .18,.18 z"/><path fill="#02b5ed" d="m 82.92,126.3 v .53 h .18 z"/><path fill="#a9a5e6" d="m 110.44,126.12 .88,.88 -.88,-.88 m -32.98,.18 .18,.18 z"/><path fill="#7e65d5" d="m 110.27,126.12 1.06,1.06 z"/><path fill="#a6dff4" d="m 94.92,126.12 .53,.53 z"/><path fill="#02b5ed" d="m 91.74,126.12 .18,.18 z"/><path fill="#412edc" d="m 86.1,126.12 .18,.18 z"/><path fill="#6899e8" d="m 82.92,126.12 .18,.18 -.18,-.18 m 3,0 .18,.18 z"/><path fill="#380db4" d="m 77.81,126.12 .18,.18 z"/><path fill="#6899e8" d="m 77.63,126.12 .18,.18 z"/><path fill="#7e65d5" d="m 110.09,125.94 .18,.18 z"/><path fill="#380db4" d="m 95.1,125.94 1.23,.71 v -.18 l -1.23,-.53 m 14.82,0 .35,.35 z"/><path fill="#a9a5e6" d="m 94.74,125.94 .18,.18 z"/><path fill="#a6dff4" d="m 85.75,125.94 .18,.18 z"/><path fill="#66daef" d="m 82.92,125.94 .18,.18 z"/><path fill="#a6dff4" d="m 110.09,125.77 .35,.35 -.35,-.35 m -32.46,.18 -.18,.35 z"/><path fill="#380db4" d="m 109.68,125.83 .12,.06 z"/><path fill="#a6dff4" d="m 91.8,125.88 .06,.12 -.06,-.12 m 2.76,-.12 .18,.18 z"/><path fill="#a9a5e6" d="m 77.81,125.77 .18,.18 z"/><path fill="#7e65d5" d="m 94.57,125.59 .35,.35 z"/><path fill="#a6dff4" d="m 85.57,125.59 .18,.18 z"/><path fill="#412edc" d="m 78.34,125.41 .18,.18 z"/><path fill="#a9a5e6" d="m 109.38,125.24 .71,.71 z"/><path fill="#7e65d5" d="m 109.21,125.24 .18,.18 z"/><path fill="#380db4" d="m 94.74,125.24 .18,.71 h .18 l -.35,-.71 m 14.11,0 v .18 l .53,.18 z"/><path fill="#a6dff4" d="m 94.45,125.36 .06,.12 z"/><path fill="#6899e8" d="m 85.57,125.24 .18,.71 h .18 z"/><path fill="#380db4" d="m 78.52,125.24 .18,.18 z"/><path fill="#6899e8" d="m 78.34,125.24 -.35,.53 z"/><path fill="#a6dff4" d="m 109.21,125.06 .18,.18 z"/><path fill="#380db4" d="m 94.92,125.06 .18,.18 -.18,-.18 m 13.76,0 .18,.18 z"/><path fill="#a6dff4" d="m 78.34,125.06 -.18,.35 .18,-.35 m 4.59,0 v .88 h .18 z"/><path fill="#a9a5e6" d="m 108.85,124.89 .35,.35 z"/><path fill="#a6dff4" d="m 85.45,125 .06,.12 z"/><path fill="#66daef" d="m 82.92,124.89 .18,.18 z"/><path fill="#a6dff4" d="m 108.68,124.71 .18,.18 z"/><path fill="#7e65d5" d="m 108.5,124.71 .35,.35 z"/><path fill="#380db4" d="m 95.1,124.71 v .35 l .35,-.35 H 95.1 m 13.23,0 .18,.18 z"/><path fill="#a9a5e6" d="m 85.39,124.71 .18,.18 z"/><path fill="#6899e8" d="m 82.92,124.71 .18,.18 z"/><path fill="#a9a5e6" d="m 108.32,124.53 .18,.18 z"/><path fill="#380db4" d="m 95.45,124.53 .18,.18 -.18,-.18 m 12.46,.06 .12,.06 z"/><path fill="#6899e8" d="m 91.57,124.53 v 1.41 h .18 z"/><path fill="#412edc" d="m 79.22,124.53 .18,.18 z"/><path fill="#a6dff4" d="m 108.15,124.36 .18,.18 z"/><path fill="#380db4" d="m 107.56,124.41 .12,.06 z"/><path fill="#a6dff4" d="m 91.8,124.47 .06,.12 z"/><path fill="#6899e8" d="m 85.45,124.47 .06,.12 z"/><path fill="#a9a5e6" d="m 107.8,124.18 .35,.35 -.35,-.35 m -28.75,.18 -.53,.71 z"/><path fill="#380db4" d="m 95.8,124.18 -.18,.35 h .35 z"/><path fill="#7e65d5" d="m 95.62,124.18 -.18,.35 z"/><path fill="#a9a5e6" d="m 95.45,124.18 -.88,1.06 z"/><path fill="#6899e8" d="m 91.74,124.18 .18,.18 z"/><path fill="#66daef" d="m 111.85,124 .18,.18 z"/><path fill="#a9a5e6" d="m 107.44,124 .18,.18 z"/><path fill="#7e65d5" d="m 107.27,124 v .18 l .71,.35 v -.18 z"/><path fill="#02b5ed" d="m 91.74,124 .18,.18 z"/><path fill="#6899e8" d="m 79.4,124 -.18,.35 z"/><path fill="#a9a5e6" d="m 107.09,123.83 .18,.18 z"/><path fill="#7e65d5" d="m 95.98,123.83 .18,.18 -.18,-.18 m 10.94,0 .18,.18 z"/><path fill="#380db4" d="m 79.93,123.83 .18,.18 z"/><path fill="#a6dff4" d="m 106.91,123.65 .18,.18 -.18,-.18 m 4.76,0 .18,.18 z"/><path fill="#a9a5e6" d="m 106.74,123.65 .18,.18 z"/><path fill="#7e65d5" d="m 106.56,123.65 .18,.18 z"/><path fill="#380db4" d="m 95.98,124.18 .71,-.53 -.71,.53 m 10.05,-.53 v .18 l 1.23,.53 z"/><path fill="#6899e8" d="m 83.1,123.65 .18,.18 -.18,-.18 m 8.82,0 .18,.18 z"/><path fill="#66daef" d="m 111.68,123.47 .18,.18 z"/><path fill="#a6dff4" d="m 106.56,123.47 .18,.18 z"/><path fill="#a9a5e6" d="m 106.38,123.47 .18,.18 z"/><path fill="#7e65d5" d="m 106.21,123.47 .18,.18 z"/><path fill="#a6dff4" d="m 83.28,123.47 -.18,1.41 h .18 v -1.41 m 12.88,0 -.53,.71 z"/><path fill="#115ce7" d="m 82.92,123.47 v .53 h .18 z"/><path fill="#7e65d5" d="m 80.1,123.47 .18,.18 z"/><path fill="#a9a5e6" d="m 106.03,123.3 .18,.18 -.18,-.18 m -26.11,.18 -.35,.53 z"/><path fill="#7e65d5" d="m 105.86,123.3 .18,.18 z"/><path fill="#380db4" d="m 105.62,123.36 .12,.06 z"/><path fill="#412edc" d="m 105.33,123.3 .18,.18 z"/><path fill="#380db4" d="m 96.86,123.3 -.18,.35 z"/><path fill="#6899e8" d="m 96.51,123.3 -.35,.53 z"/><path fill="#a6dff4" d="m 85.22,123.3 v 1.23 h .18 l -.18,-1.23 m 7.06,0 -.35,.71 h .18 z"/><path fill="#66daef" d="m 83.28,123.3 .18,.18 z"/><path fill="#380db4" d="m 80.46,123.3 .18,.18 z"/><path fill="#7e65d5" d="m 80.28,123.3 .18,.18 z"/><path fill="#a6dff4" d="m 105.68,123.12 .18,.18 -.18,-.18 m 5.82,0 .18,.18 z"/><path fill="#380db4" d="m 97.04,123.12 .18,.18 -.18,-.18 m 7.76,0 v .18 h .53 z"/><path fill="#6899e8" d="m 83.28,123.12 .18,.18 -.18,-.18 m 2.18,.12 .06,.12 -.06,-.12 m 6.82,-.12 -.18,.35 z"/><path fill="#412edc" d="m 80.81,123.12 .18,.18 z"/><path fill="#380db4" d="m 80.63,123.12 .18,.18 z"/><path fill="#6899e8" d="m 80.46,123.12 .18,.18 z"/><path fill="#66daef" d="m 111.5,122.94 .18,.18 z"/><path fill="#a9a5e6" d="m 105.15,122.94 v .18 l .53,.18 z"/><path fill="#7e65d5" d="m 104.97,122.94 .18,.18 z"/><path fill="#380db4" d="m 104.27,122.94 v .18 h .53 z"/><path fill="#412edc" d="m 104.09,122.94 .18,.18 z"/><path fill="#380db4" d="m 97.33,123 .12,.06 z"/><path fill="#a9a5e6" d="m 85.39,122.94 .18,.18 z"/><path fill="#a6dff4" d="m 104.97,122.77 .18,.18 -.18,-.18 m 6.35,0 .18,.18 -.18,-.18 m -30.87,.18 -.35,.53 .35,-.53 m 3,0 .18,.18 z"/><path fill="#a9a5e6" d="m 104.8,122.77 .18,.18 z"/><path fill="#7e65d5" d="m 104.56,122.83 .12,.06 z"/><path fill="#412edc" d="m 103.86,122.83 .12,.06 z"/><path fill="#7e65d5" d="m 97.21,122.77 -.18,.35 z"/><path fill="#a9a5e6" d="m 97.04,122.77 -.35,.53 z"/><path fill="#a6dff4" d="m 85.39,122.77 .18,.18 z"/><path fill="#7e65d5" d="m 80.98,122.77 .18,.18 z"/><path fill="#a9a5e6" d="m 80.81,122.77 -.18,.35 z"/><path fill="#66daef" d="m 111.32,122.59 .18,.18 z"/><path fill="#a9a5e6" d="m 104.27,122.59 .18,.18 z"/><path fill="#7e65d5" d="m 104.09,122.59 .18,.18 z"/><path fill="#412edc" d="m 103.03,122.59 .18,.18 z"/><path fill="#7e65d5" d="m 97.39,122.59 .18,.18 z"/><path fill="#a6dff4" d="m 97.21,122.59 .18,.18 z"/><path fill="#6899e8" d="m 92.63,122.59 .18,.18 z"/><path fill="#a6dff4" d="m 83.63,122.59 .18,.18 z"/><path fill="#412edc" d="m 81.34,122.59 .18,.18 z"/><path fill="#6899e8" d="m 81.16,122.59 .18,.18 z"/><path fill="#a6dff4" d="m 103.74,122.42 .18,.18 -.18,-.18 m -22.75,.18 .18,.18 z"/><path fill="#a9a5e6" d="m 103.56,122.42 .18,.18 z"/><path fill="#7e65d5" d="m 103.39,122.42 .18,.18 z"/><path fill="#7632dd" d="m 103.21,122.42 .18,.18 z"/><path fill="#412edc" d="m 102.09,122.47 .12,.06 z"/><path fill="#7632dd" d="m 102.15,125.24 -1.23,.18 v .18 l .71,.18 .18,2.47 1.94,1.23 1.23,1.94 c 2.84,.8 2.61,5.3 1.94,7.41 l 1.76,.88 .53,-.35 .53,-.53 .18,-.18 -.18,-.35 .71,-.88 .71,-.88 c 1.17,-.7 1.45,-2.46 1.41,-3.7 h .18 v .35 h .18 v -3 h -.18 v .35 h -.18 l -.88,-3 -.35,.18 c -.3,-.86 -.93,-1.43 -1.76,-1.76 v -.53 c -.47,.09 -.64,.08 -.53,-.35 l -.71,-.53 -.88,-.35 -1.23,-.71 -.71,-.35 c -.52,.17 -.64,.26 -.53,-.18 l -.88,.18 v -.18 l .35,-.18 -.53,-.18 .18,.35 c -.71,-.2 -2.59,-.91 -3.24,-.35 -.87,.77 .82,2.24 1.3,2.64 z"/><path fill="#380db4" d="m 97.57,122.94 .53,-.53 z"/><path fill="#6899e8" d="m 85.57,122.42 .18,.18 -.18,-.18 m 7.23,0 .18,.18 z"/><path fill="#66daef" d="m 83.63,122.42 .18,.18 z"/><path fill="#380db4" d="m 81.69,122.42 .18,.18 z"/><path fill="#a9a5e6" d="m 81.34,122.42 .18,.18 z"/><path fill="#a6dff4" d="m 103.39,122.24 .18,.18 -.18,-.18 m 7.58,0 .35,.35 z"/><path fill="#a9a5e6" d="m 102.86,122.24 v .18 h .53 z"/><path fill="#7e65d5" d="m 102.62,122.3 .12,.06 z"/><path fill="#7632dd" d="m 102.33,122.24 .18,.18 z"/><path fill="#380db4" d="m 98.21,122.3 .12,.06 -.12,-.06 m 2.88,-.06 v .18 l 2.82,.35 z"/><path fill="#6899e8" d="m 92.98,122.24 .18,.18 z"/><path fill="#a9a5e6" d="m 85.57,122.24 .18,.18 z"/><path fill="#a6dff4" d="m 83.81,122.24 .18,.18 z"/><path fill="#6899e8" d="m 81.69,122.24 .18,.18 z"/><path fill="#a9a5e6" d="m 102.15,122.06 v .18 h .53 z"/><path fill="#7e65d5" d="m 101.62,122.06 v .18 h .53 z"/><path fill="#7632dd" d="m 101.39,122.12 .12,.06 z"/><path fill="#7e65d5" d="m 98.09,122.06 .18,.18 z"/><path fill="#a9a5e6" d="m 97.92,122.06 -.35,.53 z"/><path fill="#6899e8" d="m 83.81,122.06 .18,.18 -.18,-.18 m 1.94,0 .18,.18 -.18,-.18 m 7.41,0 .18,.18 z"/><path fill="#115ce7" d="m 83.63,122.06 .18,.18 z"/><path fill="#6899e8" d="m 81.87,122.06 .18,.18 z"/><path fill="#a6dff4" d="m 101.62,121.89 .18,.18 -.18,-.18 m -19.93,.18 -.18,.35 z"/><path fill="#a9a5e6" d="m 101.39,121.95 .12,.06 z"/><path fill="#7e65d5" d="m 101.03,121.95 .12,.06 z"/><path fill="#380db4" d="m 100.74,121.89 .18,.18 z"/><path fill="#7e65d5" d="m 98.27,121.89 .18,.18 z"/><path fill="#a6dff4" d="m 98.09,121.89 .18,.18 z"/><path fill="#6899e8" d="m 93.33,121.89 .18,.18 z"/><path fill="#a9a5e6" d="m 85.75,121.89 .18,.18 z"/><path fill="#66daef" d="m 83.98,121.89 .18,.18 z"/><path fill="#412edc" d="m 82.4,121.89 .18,.18 z"/><path fill="#a6dff4" d="m 82.04,121.89 .18,.18 z"/><path fill="#a9a5e6" d="m 100.74,121.71 .18,.18 z"/><path fill="#380db4" d="m 98.45,122.24 .53,-.53 z"/><path fill="#6899e8" d="m 85.92,121.71 .18,.18 -.18,-.18 m 7.58,0 .18,.18 z"/><path fill="#a6dff4" d="m 84.16,121.71 .18,.18 -.18,-.18 m 1.59,0 .18,.18 z"/><path fill="#380db4" d="m 82.75,121.71 .18,.18 z"/><path fill="#a6dff4" d="m 112.03,121.53 -.18,3 h .18 z"/><path fill="#66daef" d="m 110.62,121.53 .18,.18 z"/><path fill="#a6dff4" d="m 110.44,121.53 .53,.53 z"/><path fill="#380db4" d="m 99.09,121.59 .12,.06 z"/><path fill="#115ce7" d="m 93.33,121.53 -.88,1.23 1.23,-1.23 z"/><path fill="#a9a5e6" d="m 85.92,121.53 .18,.18 z"/><path fill="#6899e8" d="m 82.75,121.53 .18,.18 z"/><path fill="#a9a5e6" d="m 82.57,121.53 -.18,.35 z"/><path fill="#7e65d5" d="m 98.98,121.36 -.18,.35 z"/><path fill="#a9a5e6" d="m 98.8,121.36 -.35,.53 z"/><path fill="#a6dff4" d="m 94.04,121.36 -1.59,1.76 z"/><path fill="#115ce7" d="m 93.68,121.36 .18,.18 z"/><path fill="#a6dff4" d="m 85.92,121.36 .18,.18 z"/><path fill="#a9a5e6" d="m 82.92,121.36 .18,.18 z"/><path fill="#66daef" d="m 111.91,121.3 .06,.12 z"/><path fill="#7e65d5" d="m 100.56,121.18 v .71 h .18 z"/><path fill="#7632dd" d="m 99.86,121.18 .18,.18 z"/><path fill="#6899e8" d="m 99.15,121.18 .18,.18 z"/><path fill="#a6dff4" d="m 98.98,121.18 .18,.18 z"/><path fill="#66daef" d="m 94.21,121.18 .18,.18 z"/><path fill="#a9a5e6" d="m 86.1,121.18 .18,.18 z"/><path fill="#115ce7" d="m 82.92,121.89 -.35,.18 -.71,.53 -1.06,.35 .18,.35 c -1.02,.3 -2.11,1.02 -2.29,2.12 l -.71,.88 h -.35 l .18,.35 -.88,.88 .18,.71 c -.63,.43 -.92,2.68 0,2.82 l .35,2.12 2.65,2.29 -.35,-.71 2.12,-.18 -.18,-.71 c 1.01,.91 3.21,2.7 3.35,4.06 l 3,.35 c -.3,-.48 -.76,-.98 -.71,-1.59 .07,-.9 2.1,-3.69 .53,-3.88 l -.88,-.53 c -.49,-.85 -1.37,-1.38 -2.01,-2.12 -1.63,-1.9 -2.05,-3.55 -2.05,-5.99 h -.18 c -.1,1.26 .13,3.35 -1.59,3.35 l -.35,1.59 h -.18 c 0,-3.29 1.35,-5.33 3.17,-7.94 z"/><path fill="#6899e8" d="m 83.28,121.18 .18,.18 z"/><path fill="#a6dff4" d="m 83.1,121.18 .18,.18 z"/><path fill="#66daef" d="m 110.09,121 .18,.18 z"/><path fill="#412edc" d="m 100.56,121 .18,.18 z"/><path fill="#7632dd" d="m 100.21,121 .18,.18 z"/><path fill="#412edc" d="m 100.03,121 -.88,.35 -.88,.71 .18,.35 -.53,-.18 -.53,.53 -1.59,1.23 .18,.53 h -.71 v .53 l -.71,.53 h .18 l .18,-.35 v .88 l 1.41,.35 -.35,.18 v .18 c .52,-.09 1.36,.04 1.23,.53 l .53,-.18 .88,.71 c .52,-.17 .64,-.26 .53,.18 l .53,-.18 1.23,.88 .53,-.18 1.06,.53 c .07,.6 .37,.57 .88,.35 l -.18,.53 1.23,.53 v -.18 l -.71,-.88 -1.94,-1.23 -.18,-2.47 -.71,-.18 v -.18 l 1.23,-.18 c -.75,-.88 -2.04,-1.87 -.88,-3 z"/><path fill="#7e65d5" d="m 99.51,121 .18,.18 z"/><path fill="#a9a5e6" d="m 99.33,121 .18,.18 z"/><path fill="#6899e8" d="m 83.63,121 .18,.18 -.18,-.18 m 2.65,0 .18,.18 -.18,-.18 m 8.11,0 .18,.18 z"/><path fill="#a6dff4" d="m 111.91,120.95 .06,.12 z"/><path fill="#66daef" d="m 109.91,120.83 .18,.18 z"/><path fill="#7e65d5" d="m 99.86,120.83 .18,.18 z"/><path fill="#a6dff4" d="m 94.74,120.83 -.35,.53 .35,-.53 m 4.76,0 .18,.18 z"/><path fill="#6899e8" d="m 86.45,120.83 .18,.18 z"/><path fill="#a6dff4" d="m 86.28,120.83 .18,.18 z"/><path fill="#6899e8" d="m 83.98,120.83 .18,.18 z"/><path fill="#a9a5e6" d="m 83.81,120.83 .18,.18 z"/><path fill="#a6dff4" d="m 83.63,120.83 -.18,.35 z"/><path fill="#a9a5e6" d="m 101.09,120.65 -.35,.53 z"/><path fill="#7e65d5" d="m 100.03,120.65 .18,.18 z"/><path fill="#a9a5e6" d="m 99.86,120.65 -.18,.35 z"/><path fill="#a6dff4" d="m 95.1,120.65 .18,.18 z"/><path fill="#a9a5e6" d="m 86.45,120.65 .18,.18 z"/><path fill="#6899e8" d="m 84.16,120.65 .18,.18 z"/><path fill="#a6dff4" d="m 83.98,120.65 .18,.18 z"/><path fill="#66daef" d="m 111.68,120.48 .18,.18 z"/><path fill="#6899e8" d="m 101.27,120.48 .18,.18 z"/><path fill="#380db4" d="m 99.33,121.18 v .18 l 1.06,-.35 v .88 h .18 l .71,-1.41 z"/><path fill="#412edc" d="m 100.56,120.48 -.35,.18 v .18 z"/><path fill="#7e65d5" d="m 100.39,120.48 .18,.18 z"/><path fill="#a9a5e6" d="m 100.21,120.48 .18,.18 z"/><path fill="#66daef" d="m 95.27,120.48 .18,.18 z"/><path fill="#6899e8" d="m 86.63,120.48 .18,.18 z"/><path fill="#a6dff4" d="m 109.21,120.3 .88,.88 -.88,-.88 m 2.47,0 .18,.18 -.18,-.18 m -27.34,.18 .18,.18 z"/><path fill="#a9a5e6" d="m 100.92,120.3 v .18 h .53 z"/><path fill="#a6dff4" d="m 100.68,120.36 .12,.06 z"/><path fill="#6899e8" d="m 95.45,120.3 .18,.18 z"/><path fill="#66daef" d="m 109.03,120.12 .18,.18 -.18,-.18 m -24.17,.18 .18,.18 z"/><path fill="#a6dff4" d="m 86.81,120.12 -.35,.53 .35,-.53 m 9.17,0 -.53,.35 v .18 l .71,-.35 z"/><path fill="#66daef" d="m 111.56,120.06 .06,.12 z"/><path fill="#a6dff4" d="m 96.33,119.95 .18,.18 -.18,-.18 m 12.35,0 .35,.35 z"/><path fill="#02b5ed" d="m 80.63,129.12 h .18 l .35,-1.59 c 1.76,.1 1.53,-2.05 1.59,-3.35 h .18 v .53 h .18 l -.18,-1.23 c .63,-.09 .76,-.84 .71,-1.41 l 2.12,-2.12 c -3.6,1.45 -5.12,5.58 -5.12,9.17 z"/><path fill="#a6dff4" d="m 96.68,119.77 .18,.18 -.18,-.18 m 14.82,0 .18,.18 -.18,-.18 m -26.28,.18 -.53,.35 v .18 l .71,-.35 z"/><path fill="#66daef" d="m 96.51,119.77 .18,.18 z"/><path fill="#a6dff4" d="m 85.57,119.77 -1.23,1.76 1.59,-1.76 z"/><path fill="#66daef" d="m 108.32,119.59 .35,.35 -.35,-.35 m 3,0 .18,.18 z"/><path fill="#a6dff4" d="m 97.04,119.59 .18,.18 -.18,-.18 m 11.11,0 .18,.18 z"/><path fill="#66daef" d="m 96.86,119.59 .18,.18 z"/><path fill="#a6dff4" d="m 111.32,119.42 .18,.18 z"/><path fill="#66daef" d="m 107.97,119.42 .18,.18 z"/><path fill="#a6dff4" d="m 97.39,119.42 .18,.18 -.18,-.18 m 10.41,0 .18,.18 z"/><path fill="#66daef" d="m 107.62,119.24 .18,.18 -.18,-.18 m 3.53,0 .18,.18 -.18,-.18 m -13.93,.18 .18,.18 z"/><path fill="#a6dff4" d="m 98.27,119.06 .18,.18 -.18,-.18 m 8.82,0 .18,.18 -.18,-.18 m 4.06,0 .18,.18 -.18,-.18 m -23.64,.18 -.18,.35 .18,-.35 m 10.23,0 .18,.18 z"/><path fill="#66daef" d="m 98.45,118.89 .18,.18 -.18,-.18 m 8.47,0 v .18 l .53,.18 -.53,-.35 m -8.82,.18 .18,.18 z"/><path fill="#a6dff4" d="m 98.62,118.89 v .18 l .88,-.18 h -.88 m 7.58,-.18 v .18 l .71,.18 v -.18 l -.71,-.18 m -18.34,.18 .18,.18 z"/><path fill="#66daef" d="m 105.86,118.54 .18,.18 -.18,-.18 m 4.94,0 .35,.35 -.35,-.35 m -11.82,.18 .18,.18 z"/><path fill="#a6dff4" d="m 99.98,118.59 .12,.06 -.12,-.06 m 5.64,0 .12,.06 z"/><path fill="#66daef" d="m 99.68,118.54 .18,.18 z"/><path fill="#6899e8" d="m 88.39,118.54 -1.41,1.59 z"/><path fill="#a6dff4" d="m 110.79,118.36 .18,.18 z"/><path fill="#66daef" d="m 104.97,118.36 v .18 h .53 z"/><path fill="#a6dff4" d="m 100.74,118.36 v .18 h .53 l -.53,-.18 m 3.7,0 v .18 h .53 z"/><path fill="#66daef" d="m 104.09,118.18 v .18 h .53 l -.53,-.18 m 6.53,0 .18,.18 -.18,-.18 m -10.41,.18 v .18 h .53 z"/><path fill="#a6dff4" d="m 101.8,118.18 v .18 h 2.29 z"/><path fill="#66daef" d="m 101.09,118.18 v .18 h .71 z"/><path fill="#6899e8" d="m 88.92,118.18 .18,.18 z"/><path fill="#a6dff4" d="m 110.62,118.01 .18,.18 z"/><path fill="#6899e8" d="m 89.1,118.01 .18,.18 z"/><path fill="#a6dff4" d="m 88.92,118.01 -.35,.53 z"/><path fill="#115ce7" d="m 86.28,126.12 c .08,1 1.09,2.2 2.12,2.29 l .53,.88 .53,-.18 .71,.88 .53,-.18 1.06,.53 -.18,.35 .71,-.18 .88,.88 .53,-.18 .53,.71 .88,-1.76 .53,.18 .35,-.18 .18,-.71 h -.18 l -.18,.35 v -.53 c -.52,.17 -.64,.26 -.53,-.18 l -.53,.18 v -.53 l -1.59,-.53 c -1.13,-2.44 -1.82,-2.78 -.71,-5.47 l -.53,.18 .18,-.71 -1.41,-1.23 -1.94,-.53 1.23,-2.47 -.18,-.18 c -2.14,.9 -6.49,6.11 -3.53,8.29 z"/><path fill="#a9a5e6" d="m 89.27,117.83 .18,.18 z"/><path fill="#66daef" d="m 110.27,117.65 .35,.35 z"/><path fill="#115ce7" d="m 89.92,117.71 .12,.06 z"/><path fill="#66daef" d="m 110.09,117.48 .18,.18 z"/><path fill="#115ce7" d="m 90.16,117.48 .18,.18 z"/><path fill="#6899e8" d="m 90.16,117.3 .18,.18 -.18,-.18 m -.35,.18 .18,.18 z"/><path fill="#66daef" d="m 89.98,117.3 .18,.18 z"/><path fill="#a6dff4" d="m 89.8,117.3 -.35,.53 z"/><path fill="#115ce7" d="m 90.51,117.12 .18,.18 z"/><path fill="#a6dff4" d="m 90.16,117.12 .18,.18 z"/><path fill="#115ce7" d="m 90.86,116.95 .18,.18 z"/><path fill="#6899e8" d="m 90.51,116.95 .18,.18 z"/><path fill="#a6dff4" d="m 109.56,116.77 .88,.88 z"/><path fill="#6899e8" d="m 91.04,116.59 .18,.18 z"/><path fill="#a6dff4" d="m 91.22,116.42 .18,.18 -.18,-.18 m -.35,.18 -.18,.35 z"/><path fill="#66daef" d="m 92.27,115.89 .18,.18 -.18,-.18 m 16.58,.18 .71,.71 z"/><path fill="#a6dff4" d="m 92.1,115.89 -.53,.35 v .18 l .71,-.35 z"/><path fill="#66daef" d="m 92.63,115.71 .18,.18 z"/><path fill="#a6dff4" d="m 92.45,115.71 .18,.18 z"/><path fill="#66daef" d="m 92.98,115.54 .18,.18 z"/><path fill="#a6dff4" d="m 108.15,115.36 .71,.71 -.71,-.71 m -15.35,.18 .18,.18 z"/><path fill="#66daef" d="m 93.33,115.36 .18,.18 -.18,-.18 m 14.64,0 .35,.35 z"/><path fill="#a6dff4" d="m 107.8,115.18 .18,.18 -.18,-.18 m -14.64,.18 .18,.18 z"/><path fill="#66daef" d="m 93.8,115.24 .12,.06 z"/><path fill="#a6dff4" d="m 93.51,115.18 .18,.18 z"/><path fill="#66daef" d="m 94.21,115.01 .18,.18 -.18,-.18 m 13.23,0 .35,.35 z"/><path fill="#a6dff4" d="m 94.04,115.01 .18,.18 z"/><path fill="#66daef" d="m 94.74,114.83 .18,.18 z"/><path fill="#a6dff4" d="m 106.91,114.65 .53,.35 v -.18 l -.53,-.18 m -12.35,.18 .18,.18 z"/><path fill="#66daef" d="m 95.39,114.71 .12,.06 -.12,-.06 m 11.35,-.06 .18,.18 z"/><path fill="#a6dff4" d="m 106.56,114.48 .18,.18 -.18,-.18 m -11.52,.24 .12,.06 z"/><path fill="#66daef" d="m 95.74,114.54 .12,.06 -.12,-.06 m 10.64,-.06 .18,.18 z"/><path fill="#a6dff4" d="m 106.21,114.3 .18,.18 -.18,-.18 m -10.76,.18 .18,.18 z"/><path fill="#66daef" d="m 96.33,114.3 .18,.18 -.18,-.18 m 9.7,0 .18,.18 z"/><path fill="#a6dff4" d="m 105.68,114.13 .18,.18 -.18,-.18 m -9.58,.24 .12,.06 z"/><path fill="#66daef" d="m 96.86,114.13 .18,.18 -.18,-.18 m 8.64,0 .18,.18 z"/><path fill="#a6dff4" d="m 105.27,114.01 .12,.06 -.12,-.06 m -8.64,.18 .12,.06 z"/><path fill="#66daef" d="m 97.68,114.01 .12,.06 -.12,-.06 m 7.23,0 .12,.06 z"/><path fill="#a6dff4" d="m 104.74,113.83 .12,.06 -.12,-.06 m -7.7,.12 v .18 h .53 z"/><path fill="#66daef" d="m 98.21,113.83 .12,.06 -.12,-.06 m 5.88,-.06 v .18 h .53 z"/><path fill="#a6dff4" d="m 103.74,113.6 .18,.18 -.18,-.18 m -5.82,.18 .18,.18 z"/><path fill="#66daef" d="m 103.5,113.66 .12,.06 z"/><path fill="#02b5ed" d="m 90.33,117.12 v .53 l -.35,-.18 .18,.35 -.53,-.18 -.88,2.82 1.94,.53 1.41,1.23 -.18,.71 .53,-.18 -.18,.35 h .18 l .88,-1.59 c 1.66,-.06 3.68,-1.95 5.29,-2.56 4.52,-1.73 11.91,-.47 13.23,5.03 .3,-.3 .18,-1.19 .18,-1.76 0,-1.81 -.9,-3.37 -1.94,-4.76 -3.63,-4.84 -10.7,-4.55 -15.7,-2.47 -.93,.39 -3.66,2.22 -4.06,2.12 z"/><path fill="#66daef" d="m 99.27,113.66 .12,.06 z"/><path fill="#a6dff4" d="m 99.86,113.42 v .18 h 3 l -3,-.18 m -1.23,.18 v .18 h .53 z"/></g></g></svg>